SplineFontDB: 3.0
FontName: Nirtogen-Regular
FullName: Nirtogen
FamilyName: Nirtogen
Weight: Regular
Copyright: Copyright (c) 2018, Jackson
UComments: "2018-5-23: Created with FontForge (http://fontforge.org)"
Version: 001.000
ItalicAngle: 0
UnderlinePosition: -154
UnderlineWidth: 74
Ascent: 800
Descent: 800
InvalidEm: 0
LayerCount: 2
Layer: 0 0 "Back" 1
Layer: 1 0 "Fore" 0
XUID: [1021 650 -800554709 10995349]
StyleMap: 0x0000
FSType: 0
OS2Version: 0
OS2_WeightWidthSlopeOnly: 0
OS2_UseTypoMetrics: 1
CreationTime: 1527108153
ModificationTime: 1527204359
OS2TypoAscent: 0
OS2TypoAOffset: 1
OS2TypoDescent: 0
OS2TypoDOffset: 1
OS2TypoLinegap: 142
OS2WinAscent: 0
OS2WinAOffset: 1
OS2WinDescent: 0
OS2WinDOffset: 1
HheadAscent: 0
HheadAOffset: 1
HheadDescent: 0
HheadDOffset: 1
OS2Vendor: 'PfEd'
MarkAttachClasses: 1
DEI: 91125
LangName: 1033
Encoding: ISO8859-1
UnicodeInterp: none
NameList: AGL For New Fonts
DisplaySize: -48
AntiAlias: 1
FitToEm: 0
WinInfo: 64 16 4
BeginPrivate: 0
EndPrivate
BeginChars: 256 59

StartChar: A
Encoding: 65 65 0
Width: 828
VWidth: -257
Flags: W
HStem: -6 4<56 170 659 776> 2 21G<56 170 659 775> 353 5<170 659> 358 120<168 663> 921 110<289.433 541.931> 1034 7<362.695 462.638>
VStem: 56 2<-2 734.223> 170 4<-2 353 487 734.577> 653 6<-2 353 481 740.479> 776 5<-2 739.329>
LayerCount: 2
Fore
SplineSet
50 -6 m 6xefc0
 174 -6 l 6
 170 353 l 5
 659 353 l 5
 653 -6 l 6
 781 -6 l 6
 781 730 l 6
 781 734 l 6
 781 734 717 1041 416 1041 c 4
 115 1041 56 734 56 734 c 6
 56 730 l 6
 50 -6 l 6xefc0
56 -2 m 5
 58 730 l 6
 58 732 119 1034 416 1034 c 4
 710 1034 776 732 776 730 c 6
 776 -2 l 5
 659 -2 l 5
 663 358 l 6xdfc0
 659 358 l 6xefc0
 168 358 l 6xdfc0
 170 -2 l 5
 56 -2 l 5
168 482 m 6
 170 482 l 6
 659 478 l 6
 659 481 l 6
 659 730 l 6
 659 734 l 4
 659 734 622 915 408 921 c 4
 241 927 170 734 170 734 c 6
 170 730 l 6
 168 482 l 6
170 487 m 5
 174 730 l 6
 176 736 249 925 408 919 c 4
 618 913 653 732 653 730 c 6
 653 481 l 5
 170 487 l 5
58 179 m 5
 58 278 58 447 58 552 c 6
 62 743 l 5
 71 767 l 6
 94 831 126 891 165 930 c 4
 215 980 256 1005 326 1024 c 4
 356 1030 361 1031 416 1031 c 4
 471 1031 475 1030 505 1024 c 4
 561 1007 601 987 640 954 c 4
 695 913 741 837 767 763 c 6
 775 736 l 5
 775 365 l 5
 775 2 l 5
 717 2 l 5
 659 2 l 5
 659 179 l 5
 663 358 l 5xdfc0
 416 358 l 5xefc0
 168 358 l 5
 168 193 l 6
 168 97 168 15 168 9 c 6
 170 2 l 5
 117 2 l 5
 56 2 l 5
 58 179 l 5
659 608 m 5
 659 739 l 5
 649 758 l 6
 619 832 560 887 478 910 c 4
 452 916 444 919 406 919 c 4
 361 919 345 913 313 896 c 4
 268 870 215 823 182 758 c 6
 170 736 l 5
 168 608 l 5
 168 481 l 5
 353 481 l 6
 456 481 570 478 602 478 c 6
 663 478 l 5
 659 608 l 5
EndSplineSet
EndChar

StartChar: B
Encoding: 66 66 1
Width: 822
VWidth: -341
Flags: HW
LayerCount: 2
Fore
SplineSet
56 1381 m 5
 171 1381 l 6
 293 1381 530 1282 530 1018 c 4
 530 756 309 736 414 736 c 4
 519 736 779 687 773 365 c 4
 767 103 537 19 411 19 c 4
 285 19 179 103 179 103 c 6
 178 103 l 4
 178 103 l 6
 171 6 l 5
 56 6 l 5
 56 1381 l 5
50 1383 m 6
 50 2 l 6
 56 2 l 6
 178 2 l 6
 178 2 l 6
 179 99 l 5
 196 86 294 13 411 13 c 4
 537 13 769 101 775 365 c 4
 781 691 519 739 414 739 c 4
 397 739 385 739 385 739 c 4
 391 748 534 804 534 1018 c 4
 534 1288 293 1383 171 1383 c 6
 50 1383 l 6
 50 1383 l 6
171 775 m 6
 171 775 l 6
 171 775 411 805 411 1022 c 4
 411 1239 171 1261 171 1261 c 6
 171 1261 l 6
 171 775 l 6
178 776 m 5
 178 1257 l 5
 201 1255 408 1224 408 1022 c 4
 408 820 201 778 178 776 c 5
171 370 m 4
 177 131 437 129 437 129 c 6
 437 129 657 135 663 378 c 4
 669 602 444 614 406 614 c 4
 404 614 401 614 401 614 c 6
 401 614 165 609 171 370 c 4
178 370 m 4
 172 602 399 610 401 610 c 4
 401 610 404 610 406 610 c 4
 444 610 665 601 659 378 c 4
 653 139 437 133 437 133 c 4
 435 133 184 138 178 370 c 4
56 695 m 5
 56 1381 l 5
 127 1381 l 6
 208 1381 238 1379 279 1362 c 4
 410 1321 497 1211 520 1080 c 4
 526 1039 526 960 517 921 c 4
 498 851 458 798 402 760 c 4
 370 737 373 736 423 734 c 4
 526 728 609 697 673 638 c 4
 728 588 754 529 767 443 c 4
 773 405 769 326 763 294 c 4
 737 189 677 107 578 62 c 4
 522 36 479 25 423 23 c 4
 397 23 378 22 359 24 c 4
 309 33 243 58 198 90 c 4
 185 99 171 105 171 105 c 4
 171 105 171 86 171 56 c 6
 171 7 l 5
 114 7 l 5
 56 7 l 5
 56 695 l 5
485 135 m 4
 498 137 522 150 539 159 c 4
 565 172 572 171 595 194 c 4
 633 232 654 275 663 339 c 4
 665 371 659 421 653 451 c 4
 627 547 552 597 430 614 c 4
 398 616 371 620 333 607 c 4
 251 581 198 528 179 447 c 4
 170 414 172 346 178 314 c 4
 201 223 260 164 359 138 c 4
 409 125 446 126 485 135 c 4
203 776 m 4
 302 802 376 865 402 947 c 4
 425 1011 416 1084 384 1139 c 4
 367 1165 331 1199 301 1216 c 4
 263 1239 220 1252 179 1261 c 6
 168 1263 l 5
 168 1018 l 6
 168 786 172 771 178 771 c 4
 180 771 190 774 203 776 c 4
EndSplineSet
EndChar

StartChar: C
Encoding: 67 67 2
Width: 834
VWidth: -341
Flags: W
HStem: -9 3<391.193 446.755> 350 2<664 782> 1016 2<663 781> 1254 2<387.388 423.574> 1371 5<381.118 452.915>
VStem: 50 6<304.452 1060.57> 174 4<330.36 1036.2> 663 1<343.378 350> 781 1<1018 1034.37> 782 4<321.985 350>
LayerCount: 2
Fore
SplineSet
178 1024 m 6xff40
 187 1151 298 1256 408 1254 c 4
 518 1252 646 1175 659 1016 c 4
 663 1016 l 6
 782 1016 l 6
 784 1213 610 1378 417 1376 c 4
 224 1374 48 1213 50 1016 c 6
 50 343 l 6
 50 129 253 -11 423 -9 c 4
 593 -7 786 135 786 352 c 4
 782 352 l 6
 663 352 l 6
 663 350 l 4
 657 208 540 112 430 110 c 4
 320 108 178 207 178 343 c 6
 178 1024 l 6xff40
781 1018 m 5xff80
 663 1018 l 5
 650 1177 525 1254 408 1256 c 4
 291 1258 183 1155 174 1024 c 4
 174 343 l 6
 174 202 320 107 430 109 c 4
 540 111 658 208 664 350 c 5
 782 350 l 5xff40
 782 136 591 -4 423 -6 c 4
 255 -8 56 133 56 343 c 6
 56 1016 l 6
 54 1209 224 1369 417 1371 c 4
 610 1373 783 1211 781 1018 c 5xff80
365 2 m 4
 262 19 149 101 99 197 c 4
 60 271 56 314 58 722 c 4
 60 1080 58 1093 77 1134 c 4
 127 1260 241 1339 382 1362 c 4
 560 1392 754 1243 771 1069 c 6
 775 1018 l 5
 721 1018 l 6
 665 1018 659 1026 659 1059 c 4
 659 1089 617 1158 584 1190 c 4
 543 1229 478 1257 408 1257 c 4
 338 1257 275 1227 230 1171 c 4
 166 1097 168 1092 170 663 c 4
 172 296 176 281 193 249 c 4
 249 146 382 87 487 117 c 4
 569 140 640 211 659 297 c 6
 670 343 l 5
 725 343 l 5
 781 343 l 5xff80
 776 313 l 6
 763 227 729 162 664 103 c 4
 576 21 474 -17 365 2 c 4
EndSplineSet
EndChar

StartChar: D
Encoding: 68 68 3
Width: 710
VWidth: -338
Flags: W
HStem: 2 4<56 332.19> 99 4<178 230.593> 1271 2<178 206.568> 1381 2<346 473>
VStem: 50 6<6 1381> 171 7<103 1271> 537 116<241.829 291.789 1089.64 1156.06> 659 4<323.27 1057.58>
LayerCount: 2
Fore
SplineSet
50 1383 m 6
 50 1381 l 6
 50 2 l 6
 326 2 l 6
 457 25 657 129 663 343 c 6
 663 1048 l 6
 640 1258 477 1360 346 1383 c 4
 50 1383 l 6
56 1381 m 5
 346 1381 l 6
 473 1358 636 1254 659 1048 c 6
 659 343 l 6
 653 129 457 29 326 6 c 4
 240 -7 144 6 56 6 c 5
 56 1381 l 5
659 1048 m 5
 659 1048 l 5
171 1273 m 4
 171 99 l 6
 333 97 514 126 537 361 c 4
 537 1048 l 6
 537 1130 485 1271 171 1273 c 4
178 1271 m 5
 491 1269 537 1129 537 1048 c 6
 537 361 l 6
 514 126 337 101 178 103 c 5
 178 1271 l 5
537 361 m 5
 537 361 l 5
56 695 m 5
 56 1377 l 5
 202 1377 l 6
 338 1377 351 1378 370 1376 c 4
 496 1344 600 1250 638 1128 c 4
 657 1072 653 1104 653 685 c 4
 653 327 651 309 649 290 c 4
 640 251 625 207 602 174 c 4
 585 151 548 113 522 94 c 4
 481 61 417 30 361 13 c 6
 337 7 l 5
 194 7 l 5
 56 7 l 5
 56 695 l 5
264 103 m 5
 360 112 427 140 472 185 c 4
 498 215 509 241 522 279 c 4
 539 324 537 297 537 705 c 6
 537 1078 l 5
 534 1095 l 6
 504 1194 411 1256 249 1273 c 4
 232 1273 215 1273 198 1273 c 6
 171 1273 l 5
 171 685 l 5
 171 99 l 5
 202 99 l 6
 221 99 247 103 264 103 c 5
EndSplineSet
EndChar

StartChar: E
Encoding: 69 69 4
Width: 689
VWidth: -341
Flags: HW
HStem: -346 2<-45 539> -339 117<71 539> 264 2<73 526> 390 2<522 526> 905 2<73 537> 1033 2<534 537>
VStem: -47 2<-343 1033> 71 2<-217 264 391 905> 73 2<-217 264 391 905> 526 2<265 390> 537 2<910 1033> 539 2<-343 -221>
LayerCount: 2
Fore
SplineSet
56 1379 m 5xfed0
 634 1379 l 5
 634 1256 l 5
 171 1256 l 6xfee0
 168 1254 l 6xff40
 171 736 l 6
 627 736 l 5
 627 614 l 5
 171 614 l 6xfec0
 168 610 l 6xff40
 171 126 l 6
 638 126 l 5
 638 2 l 5
 56 2 l 5
 56 1379 l 5xfed0
50 1381 m 6
 50 0 l 6
 642 0 l 6
 642 126 l 6
 642 127 l 6
 178 127 l 5xfed0
 171 610 l 5xff40
 627 610 l 6
 631 614 l 6
 631 736 l 6
 627 737 l 6
 178 737 l 5xfec0
 171 1254 l 5
 634 1254 l 6
 638 1256 l 6xff60
 638 1381 l 6xfe50
 634 1381 l 6
 50 1381 l 6
56 690 m 5
 56 1379 l 5
 346 1379 l 5
 633 1379 l 5
 633 1318 l 5
 633 1257 l 5
 590 1257 l 6
 564 1257 461 1256 358 1256 c 6
 168 1256 l 5
 168 993 l 5
 168 731 l 5
 394 731 l 5
 621 731 l 5
 621 672 l 5
 621 614 l 5
 394 614 l 5
 168 614 l 5
 168 370 l 5
 168 122 l 5xff50
 406 122 l 5
 638 122 l 5
 638 65 l 5
 638 6 l 5
 346 6 l 5
 56 6 l 5
 56 690 l 5
EndSplineSet
EndChar

StartChar: F
Encoding: 70 70 5
Width: 685
VWidth: -341
Flags: HW
LayerCount: 2
Fore
SplineSet
50 1383 m 2
 50 1383 l 2
 50 2 l 2
 50 2 l 2
 171 2 l 2
 178 2 l 2
 171 614 l 1
 411 610 l 2
 416 614 l 2
 416 736 l 2
 411 739 l 2
 178 739 l 1
 178 1254 l 1
 638 1254 l 2
 638 1257 l 2
 638 1383 l 2
 638 1383 l 2
 50 1383 l 2
56 1381 m 1
 634 1381 l 1
 634 1257 l 1
 171 1257 l 2
 171 1257 l 2
 171 736 l 2
 178 736 l 2
 411 736 l 1
 411 614 l 1
 171 614 l 2
 168 614 l 2
 171 6 l 1
 56 6 l 1
 56 1381 l 1
58 695 m 1
 58 1381 l 1
 346 1381 l 1
 634 1381 l 1
 634 1319 l 1
 634 1261 l 1
 406 1261 l 1
 168 1261 l 1
 168 1016 l 2
 168 880 171 758 171 749 c 2
 178 734 l 1
 294 734 l 1
 408 734 l 1
 408 673 l 1
 408 614 l 1
 290 617 l 1
 167 617 l 1
 168 313 l 1
 171 7 l 1
 114 7 l 1
 58 7 l 1
 58 695 l 1
 58 695 l 1
EndSplineSet
EndChar

StartChar: H
Encoding: 72 72 6
Width: 822
VWidth: -341
Flags: W
HStem: 705 122<222 602> 736 21G<177.783 232.258 595.09 649.124>
LayerCount: 2
Fore
SplineSet
50 1383 m 6x80
 50 2 l 6
 171 2 l 6
 178 2 l 6
 178 472 l 6
 178 472 184 705 419 705 c 4
 633 705 647 472 647 472 c 6
 649 2 l 6
 773 2 l 6
 775 2 l 6
 775 1383 l 6
 773 1383 l 6
 649 1383 l 6
 647 743 l 5
 630 760 552 827 416 827 c 4
 280 827 196 760 179 743 c 5
 178 1383 l 6
 171 1383 l 6
 50 1383 l 6x80
56 1381 m 5
 56 6 l 5
 171 6 l 5
 178 472 l 5
 178 472 180 710 419 710 c 4
 636 710 649 472 649 472 c 5
 653 6 l 5
 773 6 l 5
 773 1381 l 5
 653 1381 l 5
 649 736 l 6
 647 736 l 6
 647 736 568 825 416 825 c 4
 264 825 179 736 179 736 c 6
 178 736 l 6x40
 171 1381 l 5
 56 1381 l 5
EndSplineSet
EndChar

StartChar: I
Encoding: 73 73 7
Width: 349
VWidth: -258
Flags: W
HStem: 1 3<41 308> 94 2<306 308> 940 3<42 130> 942 96<39 40 42 133 223 309 310 311.999> 942 2<42 130 226 309>
VStem: 39 3<4 95 944 1035> 130 3<98 940> 223 2<96 942> 224 2<96 942> 309 3<4 94 944 1035>
LayerCount: 2
Fore
SplineSet
40 1038 m 6xd6c0
 40 1038 39 1037 39 1036 c 6
 39 943 l 6xe6c0
 39 942 39 942 40 942 c 6xd6c0
 130 940 l 5
 130 98 l 5
 40 97 l 6
 39 97 38 97 38 96 c 6
 38 2 l 6
 38 2 39 1 40 1 c 6
 309 1 l 6
 309 1 311 1 311 2 c 6
 311 96 l 6
 311 97 310 97 309 97 c 6
 225 96 l 5xe740
 226 942 l 5
 310 942 l 6xd6c0
 310 942 312 942 312 943 c 6xe6c0
 312 1036 l 6
 312 1036 311 1038 310 1038 c 6
 40 1038 l 6xd6c0
42 1035 m 5
 309 1035 l 5
 309 944 l 5
 225 944 l 6xcf40
 224 944 224 943 224 943 c 6xe6c0
 223 95 l 6xe740
 223 94 223 94 224 94 c 6
 308 95 l 5
 308 4 l 5
 41 4 l 5
 41 95 l 5
 131 95 l 6
 132 95 133 96 133 97 c 6
 133 942 l 6xd6c0
 133 943 132 943 131 943 c 6xe6c0
 42 944 l 5xcec0
 42 1035 l 5
42 50 m 5
 42 94 l 5
 87 94 l 5
 133 94 l 5
 133 519 l 5
 133 944 l 5
 94 944 l 6
 73 944 53 944 49 945 c 6
 42 946 l 5
 42 990 l 5
 42 1034 l 5
 176 1034 l 5
 309 1034 l 5
 309 990 l 5
 309 946 l 5
 266 946 l 5
 223 946 l 5
 223 520 l 5
 223 94 l 5
 265 94 l 5
 306 94 l 5
 306 50 l 5
 306 6 l 5
 174 6 l 5
 42 6 l 5
 42 50 l 5
EndSplineSet
EndChar

StartChar: J
Encoding: 74 74 8
Width: 832
VWidth: -206
Flags: HW
HStem: -702 2<387 447> -696 120<282 546> -576 2<384 443> -346 2<56 58> 1293 2<56 659> 1297 2<56 659> 1421 2<56 58 775 778>
VStem: 50 2<-353 -346 1299 1421> 171 2<-355 -346> 659 2<-343 1293> 778 2<-346 1421>
LayerCount: 2
Fore
SplineSet
56 1422 m 6xbbe0
 50 1422 l 6
 50 1299 l 6xb7e0
 56 1297 l 6
 659 1293 l 5
 663 -343 l 6
 663 -343 638 -573 414 -573 c 4
 190 -573 178 -343 178 -343 c 4
 171 -343 l 6
 56 -343 l 6
 50 -346 l 6
 50 -346 83 -702 416 -702 c 4
 749 -702 782 -346 782 -346 c 6
 782 -343 l 6
 782 1422 l 6
 56 1422 l 6xbbe0
56 1421 m 5
 778 1421 l 5
 782 -343 l 5
 782 -343 745 -698 416 -698 c 4
 98 -698 58 -372 56 -346 c 5
 171 -346 l 5
 171 -365 195 -576 414 -576 c 4
 643 -576 664 -346 664 -346 c 6
 664 -343 l 6
 663 1293 l 6xdbe0
 663 1297 l 6
 56 1299 l 5
 56 1421 l 5
375 -696 m 4
 239 -679 137 -589 82 -447 c 4
 73 -421 60 -381 58 -358 c 6
 58 -346 l 5
 114 -346 l 6
 170 -346 171 -344 171 -350 c 4
 188 -431 201 -473 239 -511 c 4
 280 -556 343 -576 414 -576 c 4
 464 -576 496 -569 534 -550 c 4
 590 -518 627 -465 653 -391 c 6
 663 -365 l 5
 664 462 l 5
 664 1297 l 5xd7e0
 614 1297 l 6x9be0
 584 1297 525 1299 475 1299 c 4
 425 1299 314 1299 223 1299 c 6x97e0
 58 1303 l 5
 58 1362 l 5
 58 1421 l 5
 416 1421 l 5
 775 1421 l 5
 778 543 l 6
 780 -255 777 -338 775 -361 c 4
 758 -458 718 -551 659 -607 c 4
 614 -652 553 -674 488 -687 c 4
 456 -693 405 -698 375 -696 c 4
EndSplineSet
EndChar

StartChar: L
Encoding: 76 76 9
Width: 689
VWidth: -341
Flags: HW
HStem: -346 2<-41 541> -339 117<81 541> 1033 2<71 74>
VStem: -45 2<-343 1033> 74 2<-217 1033> 81 2<-217 1033> 541 2<-343 -221>
LayerCount: 2
Fore
SplineSet
50 1383 m 6xfa
 50 2 l 6
 642 2 l 6
 642 127 l 6
 642 129 l 6
 179 129 l 5
 178 1383 l 6xf6
 171 1383 l 6
 50 1383 l 6xfa
56 1381 m 5
 171 1381 l 5xfa
 178 127 l 6
 179 127 l 6
 638 127 l 5
 638 6 l 5
 56 6 l 5
 56 1381 l 5
56 695 m 5
 56 1381 l 5
 114 1381 l 5
 168 1381 l 5
 168 1215 l 6
 168 1124 171 963 171 864 c 4
 171 765 178 555 178 402 c 6xfa
 178 123 l 5xf6
 408 123 l 5
 638 123 l 5
 638 67 l 5
 638 7 l 5
 346 7 l 5
 56 7 l 5
 56 695 l 5
EndSplineSet
EndChar

StartChar: M
Encoding: 77 77 10
Width: 1440
VWidth: -341
Flags: HW
LayerCount: 2
Fore
SplineSet
58 1383 m 5
 416 1383 l 6
 551 1383 676 1298 721 1216 c 4
 721 1216 l 4
 725 1216 l 6
 725 1216 809 1383 1041 1383 c 4
 1251 1383 1389 1185 1389 1027 c 6
 1383 13 l 5
 1271 9 l 5
 1271 1031 l 6
 1271 1140 1172 1261 1031 1261 c 4
 890 1261 778 1162 778 1027 c 4
 778 1027 778 50 778 9 c 6
 663 9 l 5
 663 1027 l 6
 663 1185 519 1261 416 1261 c 6
 178 1261 l 6
 171 1261 l 6
 171 6 l 5
 56 6 l 5
 58 1383 l 5
56 1383 m 6
 50 2 l 6
 50 2 l 6
 171 2 l 6
 178 2 l 6
 178 1257 l 5
 416 1261 l 6
 515 1261 659 1180 659 1027 c 6
 659 9 l 6
 663 7 l 6
 782 7 l 6
 782 9 l 6
 782 9 782 1021 782 1027 c 4
 782 1158 890 1257 1031 1257 c 4
 1172 1257 1267 1136 1267 1031 c 6
 1267 9 l 6
 1267 7 l 6
 1383 9 l 6
 1385 9 l 6
 1390 1027 l 6
 1390 1186 1255 1383 1041 1383 c 4
 818 1383 734 1240 725 1221 c 5
 675 1303 551 1383 416 1383 c 6
 56 1383 l 6
 56 1383 l 6
58 505 m 6
 58 780 60 1089 62 1192 c 6
 67 1383 l 5
 234 1381 l 6
 330 1381 429 1378 461 1376 c 4
 557 1363 648 1307 698 1242 c 6
 725 1210 l 5
 743 1242 l 6
 798 1323 910 1376 1030 1376 c 4
 1188 1376 1313 1280 1368 1121 c 4
 1385 1076 1383 1054 1383 653 c 4
 1383 421 1381 187 1379 123 c 6
 1374 13 l 5
 1321 13 l 5
 1273 13 l 5
 1273 544 l 5
 1273 1078 l 5
 1250 1122 l 6
 1209 1210 1127 1261 1031 1261 c 4
 928 1261 840 1213 801 1127 c 6
 782 1083 l 5
 782 549 l 5
 778 13 l 5
 725 13 l 5
 666 13 l 5
 664 549 l 6
 662 1072 663 1083 646 1121 c 4
 623 1171 576 1216 520 1242 c 4
 479 1261 464 1265 322 1267 c 6
 168 1267 l 5
 168 638 l 5
 168 6 l 5
 114 6 l 5
 58 6 l 5
 58 505 l 6
EndSplineSet
EndChar

StartChar: N
Encoding: 78 78 11
Width: 832
VWidth: -341
Flags: HW
LayerCount: 2
Fore
SplineSet
58 1383 m 1
 416 1383 l 2
 575 1383 778 1256 778 1027 c 2
 778 6 l 1
 663 6 l 1
 663 1027 l 2
 663 1185 519 1261 416 1261 c 2
 178 1261 l 2
 171 1257 l 2
 171 6 l 1
 56 6 l 1
 58 1383 l 1
56 1383 m 2
 50 2 l 2
 50 2 l 2
 171 2 l 2
 178 2 l 2
 178 1257 l 1
 416 1261 l 2
 515 1261 659 1180 659 1027 c 2
 659 6 l 2
 663 2 l 2
 782 2 l 2
 782 6 l 2
 782 1027 l 2
 782 1259 578 1383 416 1383 c 2
 56 1383 l 2
 56 1383 l 2
56 505 m 2
 56 780 60 1089 62 1192 c 2
 67 1383 l 1
 232 1381 l 2
 432 1381 496 1372 567 1339 c 0
 637 1307 684 1271 717 1216 c 0
 776 1120 776 1153 778 552 c 2
 782 7 l 1
 725 7 l 1
 666 7 l 1
 664 549 l 2
 662 1072 663 1083 646 1121 c 0
 623 1171 576 1216 520 1242 c 0
 479 1265 471 1263 322 1263 c 2
 171 1263 l 1
 168 634 l 1
 168 6 l 1
 114 6 l 1
 56 6 l 1
 56 505 l 2
EndSplineSet
EndChar

StartChar: O
Encoding: 79 79 12
Width: 638
VWidth: -264
Flags: W
HStem: -1 2<300.48 337.523> 92 3<293.851 334.66> 1035 20G<254 384>
VStem: 38 3<248.552 804.851> 132 2<258.874 786.49> 504 2<255.527 795.691> 598 2<248.807 796.127>
LayerCount: 2
Fore
SplineSet
600 781 m 6
 595 947 451 1055 319 1055 c 4
 187 1055 38 956 38 781 c 6
 38 272 l 6
 38 99 187 -1 319 -1 c 4
 451 -1 600 102 600 272 c 6
 600 781 l 6
598 781 m 6
 598 272 l 6
 598 104 449 1 319 1 c 4
 189 1 41 102 41 272 c 6
 41 781 l 6
 41 954 189 1055 319 1055 c 4
 449 1055 593 944 598 781 c 6
134 781 m 6
 134 899 236 961 322 961 c 4
 408 961 504 887 504 781 c 6
 504 272 l 6
 504 152 396 93 310 95 c 4
 224 97 134 178 134 272 c 6
 134 781 l 6
132 781 m 6
 132 272 l 6
 132 178 224 94 310 92 c 4
 396 90 506 150 506 272 c 6
 506 781 l 6
 506 889 408 964 322 964 c 4
 236 964 132 899 132 781 c 6
278 8 m 4
 201 18 113 78 77 143 c 4
 43 205 41 224 41 524 c 4
 41 702 43 812 48 834 c 4
 70 940 168 1029 283 1048 c 4
 381 1065 494 1009 552 918 c 4
 595 851 596 851 598 563 c 4
 600 417 595 282 593 253 c 4
 579 140 514 54 408 20 c 4
 360 3 324 1 278 8 c 4
410 114 m 4
 458 138 488 172 502 222 c 4
 509 251 511 299 509 541 c 4
 507 817 508 824 494 853 c 4
 475 894 429 935 386 952 c 4
 297 986 192 944 146 860 c 4
 132 836 132 832 130 544 c 4
 128 198 125 210 187 148 c 4
 235 100 266 90 326 92 c 4
 360 94 379 97 410 114 c 4
EndSplineSet
EndChar

StartChar: P
Encoding: 80 80 13
Width: 781
VWidth: -341
Flags: HW
LayerCount: 2
Fore
SplineSet
56 1381 m 5
 376 1381 l 6
 578 1381 730 1186 730 1018 c 4
 730 850 599 649 376 649 c 6
 178 649 l 6
 171 649 l 6
 171 6 l 5
 56 6 l 5
 56 1381 l 5
50 1381 m 6
 50 2 l 6
 56 2 l 6
 178 2 l 6
 178 2 l 6
 178 647 l 5
 376 647 l 6
 600 647 734 848 734 1018 c 4
 734 1188 578 1383 376 1383 c 6
 56 1383 l 6
 50 1381 l 6
178 1257 m 5
 376 1257 l 6
 511 1257 607 1128 607 1018 c 4
 607 908 517 775 376 775 c 6
 178 775 l 5
 178 1257 l 5
171 1257 m 6
 171 775 l 6
 178 771 l 6
 376 771 l 6
 517 771 610 908 610 1018 c 4
 610 1128 512 1261 376 1261 c 6
 178 1261 l 6
 171 1257 l 6
58 690 m 5
 58 1376 l 5
 255 1371 l 5
 455 1371 l 5
 517 1339 l 6
 614 1294 680 1205 713 1095 c 4
 746 985 710 856 614 760 c 4
 533 678 468 659 294 659 c 6
 171 659 l 5
 171 329 l 5
 171 6 l 5
 114 6 l 5
 58 6 l 5
 58 690 l 5
462 786 m 4
 548 824 610 919 610 1010 c 4
 610 1080 589 1131 544 1181 c 4
 480 1251 446 1265 294 1267 c 6
 171 1271 l 5
 171 1022 l 5
 171 771 l 5
 301 771 l 6
 411 771 430 769 462 786 c 4
EndSplineSet
EndChar

StartChar: S
Encoding: 83 83 14
Width: 840
VWidth: -338
Flags: HW
LayerCount: 2
Fore
SplineSet
410 769 m 4
 171 795 171 1016 171 1016 c 4
 171 1025 199 1254 405 1254 c 4
 644 1252 653 1026 653 1024 c 4
 657 1024 l 6
 657 1024 l 6
 696 1024 739 1024 778 1024 c 4
 778 1025 l 4
 778 1199 629 1382 405 1376 c 4
 181 1370 48 1183 50 1005 c 4
 52 827 221 642 414 642 c 4
 607 642 676 520 663 358 c 4
 650 199 518 127 419 127 c 4
 320 127 179 200 179 358 c 4
 179 359 l 6
 56 359 l 6
 55 358 l 4
 81 32 354 2 419 0 c 4
 489 -2 753 44 792 358 c 4
 792 358 l 4
 792 620 639 769 410 769 c 4
657 1025 m 6
 657 1044 637 1252 405 1254 c 4
 195 1254 168 1029 168 1016 c 4
 168 1016 167 797 410 767 c 4
 410 767 l 4
 634 767 789 620 789 358 c 4
 750 45 484 0 419 2 c 4
 354 4 86 36 56 358 c 5
 178 358 l 5
 178 200 320 126 419 126 c 4
 518 126 653 196 666 358 c 4
 679 520 607 646 414 646 c 4
 221 646 57 831 55 1005 c 4
 53 1179 182 1370 405 1376 c 4
 628 1382 775 1195 775 1025 c 5
 657 1025 l 6
789 358 m 5
 789 358 l 6
 789 134 789 358 789 358 c 5
 789 358 l 5
393 9 m 4
 267 28 155 96 110 187 c 4
 87 232 64 303 64 333 c 4
 64 352 68 353 118 353 c 4
 168 353 169 352 171 329 c 4
 184 270 200 244 232 206 c 4
 358 70 584 109 649 279 c 4
 666 317 665 338 663 408 c 4
 661 478 657 497 638 530 c 4
 612 575 578 612 537 631 c 4
 520 637 466 643 416 649 c 4
 299 662 238 690 168 760 c 4
 82 846 45 960 64 1065 c 4
 96 1262 279 1400 470 1368 c 4
 573 1351 666 1287 721 1199 c 4
 747 1161 773 1082 773 1050 c 4
 773 1031 773 1030 717 1030 c 4
 667 1030 657 1032 657 1045 c 4
 657 1078 632 1139 599 1177 c 4
 558 1227 507 1250 437 1256 c 4
 315 1269 230 1215 185 1095 c 4
 144 978 194 844 311 789 c 4
 341 776 380 769 430 763 c 4
 561 750 651 709 707 627 c 4
 746 571 765 512 778 430 c 4
 787 375 784 356 775 311 c 4
 749 208 702 129 621 74 c 4
 551 29 458 0 393 9 c 4
EndSplineSet
EndChar

StartChar: T
Encoding: 84 84 15
Width: 688
VWidth: -341
Flags: HW
LayerCount: 2
Fore
SplineSet
56 1381 m 5
 638 1381 l 5
 638 1257 l 5
 411 1257 l 6
 408 1257 l 6
 411 6 l 5
 294 6 l 5
 290 1257 l 6
 287 1257 l 6
 56 1257 l 5
 56 1381 l 5
50 1383 m 6
 50 1257 l 6
 50 1254 l 6
 287 1254 l 5
 290 2 l 6
 290 2 l 6
 411 2 l 6
 411 2 l 6
 411 1254 l 5
 640 1254 l 6
 640 1257 l 6
 640 1383 l 6
 640 1383 l 6
 50 1383 l 6
 50 1383 l 6
294 634 m 5
 290 1261 l 5
 174 1261 l 5
 58 1261 l 5
 58 1319 l 5
 58 1381 l 5
 346 1381 l 5
 638 1381 l 5
 638 1319 l 5
 638 1261 l 5
 520 1261 l 5
 408 1261 l 5
 408 634 l 5
 408 7 l 5
 352 7 l 5
 294 7 l 5
 294 634 l 5
EndSplineSet
EndChar

StartChar: U
Encoding: 85 85 16
Width: 832
VWidth: -341
Flags: HW
LayerCount: 2
Fore
SplineSet
50 1383 m 6
 50 1381 l 6
 50 365 l 6
 50 118 289 6 416 6 c 4
 542 6 625 50 663 114 c 6
 659 2 l 6
 663 2 l 6
 782 2 l 6
 782 2 l 6
 782 1381 l 6
 782 1383 l 6
 663 1383 l 6
 659 1381 l 6
 659 365 l 6
 659 216 521 127 416 127 c 4
 311 127 184 223 178 365 c 6
 178 1381 l 6
 171 1383 l 6
 50 1383 l 6
56 1381 m 5
 171 1381 l 5
 171 365 l 6
 177 223 307 123 416 123 c 4
 525 123 663 216 663 365 c 6
 663 1381 l 5
 778 1381 l 5
 778 6 l 5
 663 6 l 5
 664 120 l 6
 664 120 l 4
 663 120 l 4
 625 56 543 7 416 7 c 4
 289 7 56 122 56 365 c 6
 56 1381 l 5
666 67 m 5
 666 129 l 5
 638 99 l 6
 600 58 527 19 456 13 c 4
 278 -4 97 128 64 296 c 4
 58 326 56 511 56 857 c 6
 56 1376 l 5
 114 1376 l 5
 168 1376 l 5
 171 840 l 5
 171 301 l 5
 193 265 l 6
 223 210 264 172 314 146 c 4
 431 90 577 139 642 261 c 6
 664 301 l 5
 664 840 l 5
 666 1376 l 5
 725 1376 l 5
 778 1376 l 5
 778 690 l 5
 778 6 l 5
 725 6 l 5
 666 6 l 5
 666 67 l 5
EndSplineSet
EndChar

StartChar: V
Encoding: 86 86 17
Width: 834
VWidth: -257
Flags: HW
LayerCount: 2
Fore
SplineSet
786 1046 m 5
 786 1046 l 4
 782 1046 l 6
 646 1046 l 6
 642 1046 l 6
 552 698 l 5
 522 599 l 5
 411 178 l 5
 296 607 l 5
 265 707 l 5
 178 1046 l 6
 178 1046 l 6
 56 1046 l 5
 56 1046 l 4
 50 1046 l 6
 352 2 l 6
 352 2 l 6
 473 2 l 6
 473 2 l 6
 786 1046 l 5
778 1042 m 5
 473 6 l 5
 352 6 l 5
 56 1042 l 5
 171 1042 l 5
 264 707 l 5
 294 607 l 5
 408 168 l 6
 411 167 l 4
 411 168 l 6
 526 595 l 5
 554 698 l 5
 646 1042 l 5
 778 1042 l 5
353 13 m 4
 347 30 73 992 67 1018 c 6
 64 1041 l 5
 118 1041 l 5
 168 1041 l 5
 184 993 l 6
 190 967 240 779 296 569 c 4
 352 359 404 180 406 171 c 4
 412 158 413 171 426 210 c 4
 432 240 488 433 544 647 c 6
 647 1034 l 5
 711 1041 l 6
 770 1043 771 1040 769 1027 c 4
 767 1018 699 786 617 507 c 6
 469 6 l 5
 416 6 l 6
 378 6 355 7 353 13 c 4
EndSplineSet
EndChar

StartChar: W
Encoding: 87 87 18
Width: 1440
VWidth: -338
Flags: W
HStem: 0 2<396.658 439.029 1004.4 1052.19 1271 1389> 122 4<391.535 443.778 992.672 1051.33> 1374 2<56 58 168 171 663 666 1383 1389>
VStem: 50 6<314.573 1374> 171 7<350.881 1374> 659 4<335.312 1374> 778 4<333.147 1374> 1263 4<2 91> 1267 4<2 55 184 1374> 1389 1<2 1374>
LayerCount: 2
Fore
SplineSet
1267 358 m 6xfec0
 1254 184 1129 126 1019 126 c 4
 909 126 782 223 782 358 c 6
 782 1376 l 6
 663 1376 l 6
 659 1376 l 6
 659 358 l 6
 659 236 533 128 423 126 c 4
 313 124 178 205 178 358 c 6
 178 1376 l 6
 171 1376 l 6
 50 1376 l 6
 50 358 l 6
 50 167 206 0 416 0 c 4
 613 0 712 143 725 162 c 5
 738 143 851 0 1025 0 c 4
 1187 0 1250 72 1263 91 c 6xff40
 1267 0 l 6
 1389 0 l 6
 1390 0 l 6
 1390 1376 l 6
 1389 1376 l 6
 1267 1376 l 6
 1267 358 l 6xfec0
56 1374 m 5
 171 1374 l 5
 171 358 l 6
 171 200 313 120 423 122 c 4
 533 124 663 232 663 358 c 6
 663 1374 l 5
 778 1374 l 5
 778 358 l 6
 778 222 909 122 1019 122 c 4
 1129 122 1258 180 1271 358 c 6
 1271 1374 l 5
 1389 1374 l 5
 1389 2 l 5
 1271 2 l 5
 1267 97 l 6xfec0
 1263 97 l 6
 1263 97 1210 2 1025 2 c 4
 840 2 725 167 725 167 c 6
 721 167 l 6
 721 167 622 2 416 2 c 4
 210 2 56 171 56 358 c 6
 56 1374 l 5
359 13 m 4
 217 32 94 156 64 297 c 4
 58 327 58 543 58 857 c 6
 58 1374 l 5
 114 1374 l 5
 168 1374 l 5
 168 842 l 6
 168 252 170 272 229 202 c 4
 294 128 407 102 498 135 c 4
 557 158 608 206 638 262 c 6
 664 311 l 5
 664 840 l 5
 666 1374 l 5
 725 1374 l 5
 778 1374 l 5
 778 834 l 5
 778 301 l 5
 801 256 l 6
 840 174 923 122 1019 122 c 4
 1124 122 1201 157 1242 239 c 6
 1267 287 l 5
 1267 829 l 5
 1271 1374 l 5
 1325 1374 l 5
 1383 1374 l 5
 1383 687 l 5
 1383 2 l 5
 1325 2 l 5
 1271 2 l 5
 1271 55 l 5
 1271 103 l 5
 1239 74 l 6
 1200 41 1156 22 1086 13 c 4
 969 -4 870 31 773 122 c 4
 741 154 717 170 717 168 c 4
 717 155 641 85 602 59 c 4
 537 20 447 0 359 13 c 4
EndSplineSet
EndChar

StartChar: h
Encoding: 104 104 19
Width: 805
VWidth: -257
Flags: W
HStem: 0 2<152 270 634 754> 555 4<30 150> 563 4<275 421.161> 681 4<30 32> 685 2<30 32 318 752> 1046 2<152 153 265 270>
VStem: 26 4<559 681> 146 4<687 1040.38> 150 2<2 287 933.732 1046> 270 5<2 559 687 1046> 633 1<2 333.062> 754 4<2 351.068>
LayerCount: 2
Fore
SplineSet
391 563 m 6xeef0
 615 563 633 329 633 329 c 5
 633 2 l 6
 634 0 l 6
 758 0 l 6
 758 2 l 6
 758 329 l 6
 758 329 756 664 391 687 c 4
 359 689 288 687 275 687 c 6
 275 1046 l 6
 270 1048 l 6
 150 1048 l 6
 150 1046 l 4xeef0
 150 926 146 807 146 687 c 5xef70
 30 685 l 6xf770
 26 685 l 6
 26 559 l 6
 30 555 l 6
 150 559 l 5
 150 0 l 6
 270 0 l 6
 275 0 l 6
 275 559 l 5
 391 563 l 6xeef0
152 1046 m 5
 270 1046 l 5
 270 685 l 6
 275 685 l 6
 275 685 358 687 391 685 c 4xeef0
 752 662 754 329 754 329 c 5
 754 2 l 5
 634 2 l 5
 634 329 l 6
 634 329 620 567 391 567 c 6
 270 559 l 6
 270 2 l 5
 152 2 l 5
 152 563 l 6
 30 559 l 5
 30 681 l 5xf6f0
 146 685 l 6xef70
 150 685 l 6
 152 1046 l 5
153 287 m 5
 153 567 l 5
 91 563 l 5
 32 563 l 5
 32 621 l 5
 32 681 l 5
 86 681 l 6xf6f0
 116 681 144 685 146 685 c 6xef70
 152 685 l 5
 152 833 l 6
 152 915 152 991 152 1010 c 6
 153 1042 l 5
 211 1042 l 5
 265 1042 l 5
 265 969 l 6
 265 930 270 851 270 792 c 6
 270 685 l 5
 318 685 l 6
 423 685 486 676 550 646 c 4
 636 607 702 536 734 440 c 4
 753 381 754 381 754 184 c 6
 754 6 l 5
 696 6 l 5
 634 6 l 5
 634 179 l 6
 634 349 637 353 631 376 c 4
 599 479 537 544 446 563 c 4
 423 565 409 569 350 567 c 4
 312 567 277 563 275 563 c 6
 265 559 l 5
 265 287 l 5
 265 6 l 5
 211 6 l 5
 153 6 l 5
 153 287 l 5
EndSplineSet
EndChar

StartChar: u
Encoding: 117 117 20
Width: 808
VWidth: -180
Flags: HW
HStem: -7 2<638 758> -6 2<363 423> 118 2<363 411> 728 2<30 32 142 149 638 642 754 758>
VStem: 26 2<322 728> 149 2<333 728> 634 2<-6 88 346 728> 758 2<-6 728>
LayerCount: 2
Fore
SplineSet
30 728 m 5x7f
 149 728 l 5
 149 353 l 6
 149 212 281 116 391 118 c 4
 501 120 621 171 638 353 c 4
 638 728 l 5
 758 728 l 5
 758 -6 l 5
 638 -6 l 5xbf
 638 91 l 6
 638 96 l 4
 634 96 l 6
 634 96 551 -2 393 -2 c 4
 235 -2 30 129 30 353 c 6
 30 728 l 5x7f
26 728 m 6
 26 353 l 6
 26 124 234 -6 393 -6 c 4x7f
 535 -6 617 71 634 88 c 5
 634 -7 l 6
 758 -7 l 6
 760 -7 l 6
 760 728 l 6
 758 730 l 6
 634 730 l 6
 634 728 l 6
 634 353 l 5
 617 175 501 122 391 120 c 4
 282 118 152 217 152 353 c 6
 152 728 l 6
 152 730 l 6
 30 730 l 6
 26 728 l 6
642 45 m 6
 642 75 638 97 638 97 c 4
 638 97 633 92 627 86 c 4
 594 53 530 20 466 7 c 4
 434 1 359 1 327 7 c 4
 246 24 186 58 131 114 c 4
 81 164 55 216 38 287 c 4
 36 306 32 330 32 517 c 6
 32 728 l 5
 88 728 l 5
 142 728 l 5
 149 522 l 6
 149 325 147 324 153 301 c 4
 176 215 236 157 322 127 c 4
 345 121 352 118 391 118 c 4
 429 118 432 121 458 127 c 4
 546 153 608 202 631 290 c 4
 644 331 642 353 642 544 c 6
 642 728 l 5
 698 728 l 5
 754 728 l 5
 754 359 l 5
 754 -6 l 5
 698 -6 l 5
 642 -6 l 5xbf
 642 45 l 6
EndSplineSet
EndChar

StartChar: a
Encoding: 97 97 22
Width: 852
VWidth: -184
Flags: W
HStem: -2 2<631 746> 2 4<338.947 420.885> 117 3<354.164 405.208> 555 4<750 801> 610 4<350.391 414.976> 679 2<551.339 552 799 801> 726 2<372.913 406.771>
VStem: 30 116<232.109 504.061> 146 4<335.324 399.469> 629 2<344.187 378.525> 746 4<0 555> 801 4<559 679>
LayerCount: 2
Fore
SplineSet
801 681 m 5xff70
 801 559 l 5
 749 559 l 6
 749 559 746 560 746 558 c 6
 746 0 l 5
 631 0 l 5
 634 103 l 6
 633 103 l 4
 631 103 l 6
 631 103 562 0 359 6 c 4
 142 13 24 200 30 384 c 4
 36 551 146 713 384 726 c 4
 515 724 550 679 550 679 c 4
 552 679 l 6
 801 681 l 5xff70
384 726 m 6
 384 726 l 6
805 685 m 6
 552 681 l 6
 546 687 507 726 384 728 c 4
 145 715 32 552 26 384 c 4
 20 199 139 9 358 2 c 4
 540 -4 618 78 631 97 c 5
 627 -2 l 6
 627 -4 629 -2 629 -2 c 6
 749 -2 l 6
 751 -2 750 -2 750 -2 c 6
 750 555 l 5
 805 558 l 6
 805 681 l 6
 805 683 805 685 805 685 c 6
379 614 m 4
 220 612 146 488 146 365 c 4
 148 238 231 111 390 117 c 4
 557 123 633 244 631 367 c 4
 629 493 538 616 379 614 c 4
379 610 m 4
 538 612 627 490 629 367 c 4
 631 245 555 126 390 120 c 4
 231 114 150 238 150 365 c 4xfef0
 150 488 221 608 379 610 c 4
631 13 m 6
 633 26 639 106 637 106 c 4
 637 106 623 97 614 88 c 4
 581 55 532 30 470 17 c 4
 425 8 337 8 296 17 c 4
 210 36 143 82 96 153 c 4
 32 249 9 379 47 488 c 4
 88 611 185 691 326 717 c 4
 397 730 502 715 541 685 c 6
 550 678 l 5
 675 679 l 5
 799 679 l 5
 799 621 l 5
 799 566 l 5
 790 559 l 6
 784 557 769 559 762 559 c 6
 745 559 l 5
 745 281 l 5
 745 2 l 5
 687 2 l 5
 631 2 l 5
 631 13 l 6
455 123 m 4
 543 146 604 211 623 301 c 4
 625 314 631 338 631 361 c 4
 631 435 600 507 550 552 c 4
 500 597 442 616 365 614 c 4
 274 608 206 564 168 482 c 4
 149 444 146 412 146 365 c 4xff70
 146 332 146 320 152 296 c 4
 178 195 249 131 346 118 c 4
 372 112 423 116 455 123 c 4
EndSplineSet
EndChar

StartChar: b
Encoding: 98 98 23
Width: 808
VWidth: -257
Flags: HW
LayerCount: 2
Fore
SplineSet
30 1041 m 5
 149 1041 l 5
 149 631 l 6
 149 631 l 4
 152 631 l 6
 152 631 235 728 397 726 c 4
 559 724 767 565 758 346 c 4
 749 127 559 0 391 0 c 4
 223 0 153 86 153 86 c 6
 153 86 l 4
 152 86 l 6
 149 -2 l 5
 30 -2 l 5
 30 1041 l 5
26 1041 m 6
 26 -6 l 6
 30 -6 l 6
 152 -6 l 6
 152 -6 l 6
 153 81 l 5
 170 64 238 -2 391 -2 c 4
 561 -2 751 127 760 346 c 4
 769 565 564 726 397 728 c 4
 248 730 169 650 152 633 c 5
 152 1041 l 6
 152 1042 l 6
 30 1042 l 6
 26 1041 l 6
152 350 m 4
 150 259 224 110 391 110 c 4
 540 110 638 232 638 358 c 4
 638 484 532 607 397 607 c 4
 195 607 154 446 152 350 c 4
153 350 m 4
 155 446 197 602 397 602 c 4
 532 602 634 480 634 358 c 4
 634 236 533 114 391 114 c 4
 229 114 151 259 153 350 c 4
32 520 m 5
 32 1034 l 5
 88 1034 l 5
 149 1034 l 5
 149 829 l 6
 149 719 149 627 149 627 c 4
 149 627 158 633 167 642 c 4
 255 724 395 745 505 704 c 4
 631 654 724 545 750 423 c 4
 756 391 756 334 750 301 c 4
 724 149 602 36 449 6 c 4
 411 0 334 0 301 9 c 4
 242 22 192 49 159 82 c 6
 152 91 l 5
 152 65 l 6
 152 52 149 36 149 23 c 6
 142 0 l 5
 88 0 l 5
 32 0 l 5
 32 520 l 5
 32 520 l 5
430 114 m 4
 526 131 607 200 633 297 c 4
 642 329 639 384 633 414 c 4
 607 505 541 573 455 599 c 4
 423 608 364 608 326 599 c 4
 227 573 169 504 152 384 c 4
 143 325 159 265 197 210 c 4
 214 184 247 154 273 141 c 4
 296 128 324 116 350 114 c 4
 373 112 407 112 430 114 c 5
 430 114 l 4
EndSplineSet
EndChar

StartChar: c
Encoding: 99 99 24
Width: 788
VWidth: -174
Flags: W
HStem: -6 4<355.411 424.615> 118 2<362.729 404.193> 595 4<350.72 413.798> 713 4<341.173 421.756>
VStem: 26 4<327.213 390.512>
LayerCount: 2
Fore
SplineSet
601 487 m 5
 595 500 543 599 376 599 c 4
 267 599 144 502 142 353 c 4
 140 204 253 118 384 118 c 4
 558 118 615 270 621 287 c 5
 737 255 l 5
 728 232 632 -8 379 -2 c 4
 217 0 30 135 30 358 c 4
 30 468 97 608 219 673 c 4
 264 699 320 713 379 713 c 4
 611 713 695 561 704 544 c 5
 601 487 l 5
601 482 m 6
 707 543 l 6
 707 544 l 4
 707 544 622 717 379 717 c 4
 315 717 264 704 219 678 c 4
 97 613 26 475 26 358 c 4
 26 135 212 -4 379 -6 c 4
 643 -12 741 256 741 256 c 4
 737 256 l 6
 621 290 l 6
 617 290 l 6
 617 290 566 120 384 120 c 4
 253 120 147 204 149 353 c 4
 151 495 271 595 376 595 c 4
 550 595 599 482 599 482 c 6
 601 482 l 6
322 7 m 4
 248 24 182 58 127 114 c 4
 86 159 58 211 41 270 c 4
 32 309 27 373 33 411 c 4
 50 507 111 592 185 647 c 4
 244 686 310 711 384 711 c 4
 494 711 592 673 657 602 c 4
 683 572 700 546 698 544 c 4
 696 542 672 530 646 513 c 6
 601 488 l 5
 590 504 l 6
 571 534 543 556 505 575 c 4
 450 601 373 610 318 593 c 4
 244 570 175 499 152 417 c 4
 143 385 143 329 149 297 c 4
 168 209 223 149 314 123 c 4
 346 114 419 114 449 123 c 4
 520 146 581 190 614 261 c 4
 620 274 621 282 621 282 c 4
 621 282 646 279 678 270 c 6
 736 255 l 5
 728 235 l 6
 705 185 670 138 631 99 c 4
 590 58 531 26 475 9 c 4
 449 3 438 2 397 2 c 4
 358 2 345 1 322 7 c 4
EndSplineSet
EndChar

StartChar: d
Encoding: 100 100 25
Width: 808
VWidth: -257
Flags: HW
HStem: -6 2<638 758> -2 2<361 429> 110 491<249 561> 602 126<275 520> 1041 2<754 758>
VStem: 26 2<326 397> 633 2<-2 81 323 375> 637 2<-2 81 633 1041> 758 2<-2 1041>
LayerCount: 2
Fore
SplineSet
758 1041 m 5x8d80
 638 1041 l 5
 638 631 l 6
 637 631 l 6x8d80
 637 631 549 728 387 726 c 4
 225 724 21 565 30 346 c 4
 39 127 225 0 393 0 c 4
 561 0 633 86 633 86 c 6x4e80
 637 86 l 4
 638 -2 l 5
 758 -2 l 5
 758 1041 l 5x8d80
760 1041 m 6
 760 -6 l 6
 758 -6 l 6
 637 -6 l 6x9d80
 633 81 l 5
 616 64 546 -2 393 -2 c 4
 223 -2 35 127 26 346 c 4
 17 565 220 726 387 728 c 4x5e80
 536 730 620 650 637 633 c 5
 637 1041 l 6
 637 1042 l 6
 758 1042 l 6
 760 1041 l 6
637 350 m 4x2e80
 639 259 560 110 393 110 c 4
 244 110 149 232 149 358 c 4
 149 484 252 607 387 607 c 4
 589 607 635 446 637 350 c 4x2e80
633 350 m 4
 631 446 587 602 387 602 c 4
 252 602 152 480 152 358 c 4
 152 236 251 114 393 114 c 4
 555 114 635 259 633 350 c 4
754 520 m 5
 754 0 l 5
 698 0 l 5
 642 0 l 5
 638 23 l 6
 638 36 638 52 638 65 c 6
 638 91 l 5
 631 82 l 6
 598 49 544 22 485 9 c 4
 452 0 371 0 333 6 c 4
 180 36 64 149 38 301 c 4
 32 334 32 391 38 423 c 4
 64 545 156 654 282 704 c 4
 392 745 533 724 621 642 c 4
 630 633 638 627 638 627 c 4
 638 627 638 719 638 829 c 6
 638 1034 l 5x4d80
 698 1034 l 5
 754 1034 l 5
 754 520 l 5
353 114 m 4
 376 112 414 112 437 114 c 4
 463 116 494 128 517 141 c 4
 543 154 570 184 587 210 c 4
 625 265 646 325 637 384 c 4
 620 504 557 573 458 599 c 4
 420 608 359 608 327 599 c 4
 241 573 179 505 153 414 c 4
 147 384 149 329 158 297 c 4
 184 200 257 131 353 114 c 4
EndSplineSet
EndChar

StartChar: e
Encoding: 101 101 26
Width: 805
VWidth: -178
Flags: W
HStem: 367 124<64 150 179 713> 602 124<381.94 514.21>
VStem: 26 124<222 484> 634 79<367 491>
LayerCount: 2
Fore
SplineSet
26 353 m 4
 24 550 182 720 379 726 c 5
 384 602 l 5
 253 596 150 484 150 353 c 4
 150 222 254 119 385 117 c 5
 385 -6 l 5
 188 -4 28 156 26 353 c 4
391 726 m 4
 588 726 752 564 758 367 c 5
 634 367 l 5
 628 498 522 602 391 602 c 4
 260 602 156 498 150 367 c 5
 26 367 l 5
 32 564 194 726 391 726 c 4
64 491 m 5
 713 491 l 5
 713 367 l 5
 64 367 l 5
 64 491 l 5
203 45 m 4
 35 148 -20 367 77 537 c 5
 179 475 l 5
 115 358 155 220 265 150 c 4
 375 80 528 115 599 224 c 5
 702 161 l 5
 597 -6 371 -58 203 45 c 4
EndSplineSet
EndChar

StartChar: f
Encoding: 102 102 27
Width: 462
VWidth: -256
Flags: HW
HStem: -256 2<88 203> 297 2<-33 81 203 322> 423 2<-33 50 322 322>
VStem: -38 2<301 423> 85 2<-255 73> 200 2<-255 297 426 434> 203 2<-255 297 426 451> 322 2<301 423>
LayerCount: 2
Fore
SplineSet
30 679 m 6xfb
 43 679 149 681 149 690 c 4
 149 937 388 1015 414 1024 c 5
 414 1007 414 910 414 901 c 4
 265 837 264 679 264 679 c 4
 270 679 l 6
 387 679 l 5
 387 555 l 5
 264 555 l 6
 264 554 l 6xfd
 270 2 l 5
 152 2 l 5
 149 555 l 6
 142 555 l 6
 30 555 l 5
 30 679 l 6xfb
26 681 m 6
 26 555 l 6
 30 554 l 6
 142 555 l 5
 149 -2 l 6
 149 -2 l 6
 270 -2 l 6
 273 -2 l 6xfb
 270 554 l 5
 391 554 l 6
 391 555 l 6
 391 681 l 6
 391 681 l 6
 270 681 l 5
 270 698 278 837 414 896 c 4
 416 898 416 1025 416 1025 c 6
 416 1030 l 4
 416 1030 142 948 142 690 c 4
 133 684 30 681 30 681 c 4
 26 681 l 6
152 56 m 5
 152 86 152 203 152 329 c 6
 152 559 l 5
 91 559 l 5
 30 559 l 5
 30 621 l 5
 30 679 l 5
 86 679 l 6
 124 679 140 683 142 685 c 4
 144 687 152 694 152 717 c 4
 158 816 205 902 301 966 c 4
 331 985 367 1005 397 1018 c 6
 414 1024 l 5
 414 962 l 5
 414 904 l 5
 393 895 l 6
 328 863 290 806 273 725 c 4
 271 712 264 696 264 690 c 6
 264 678 l 5
 326 679 l 5
 387 679 l 5
 387 621 l 5
 387 559 l 5
 326 559 l 5
 264 559 l 5
 264 282 l 5
 264 6 l 5
 210 6 l 5
 153 6 l 5
 152 56 l 5
EndSplineSet
EndChar

StartChar: g
Encoding: 103 103 28
Width: 808
VWidth: 0
Flags: W
HStem: -737 121<268.04 514.209> -127 121<265.526 516.734> 6 121<267.785 519.007> 616 121<270.288 516.461>
VStem: 26 123<-496.144 -244.45 251.173 489.366> 634 124<-496.144 705>
LayerCount: 2
Fore
SplineSet
152 370 m 4
 152 235 258 127 393 127 c 4
 528 127 638 235 638 370 c 4
 638 505 528 616 393 616 c 4
 258 616 152 505 152 370 c 4
30 370 m 4
 30 570 193 737 393 737 c 4
 593 737 760 570 760 370 c 4
 760 170 593 6 393 6 c 4
 193 6 30 170 30 370 c 4
634 -378 m 5
 634 705 l 5
 758 705 l 5
 758 -378 l 5
 634 -378 l 5
149 -370 m 4
 149 -505 256 -616 391 -616 c 4
 526 -616 634 -505 634 -370 c 4
 634 -235 526 -127 391 -127 c 4
 256 -127 149 -235 149 -370 c 4
26 -370 m 4
 26 -170 191 -6 391 -6 c 4
 591 -6 758 -170 758 -370 c 4
 758 -570 591 -737 391 -737 c 4
 191 -737 26 -570 26 -370 c 4
EndSplineSet
EndChar

StartChar: i
Encoding: 105 105 29
Width: 200
VWidth: -197
Flags: W
HStem: 539 20G<26 152>
VStem: 26 126<-2 558>
LayerCount: 2
Fore
SplineSet
30 559 m 6
 152 559 l 6
 152 558 l 6
 152 -2 l 6
 30 -2 l 6
 26 -2 l 6
 26 558 l 6
 30 559 l 6
30 558 m 5
 149 558 l 5
 149 -2 l 5
 30 -2 l 5
 30 558 l 5
149 696 m 5
 149 801 l 5
 30 801 l 5
 30 696 l 5
 149 696 l 5
152 695 m 6
 152 801 l 6
 152 805 l 6
 30 805 l 6
 26 801 l 6
 26 695 l 6
 30 695 l 6
 152 695 l 6
EndSplineSet
EndChar

StartChar: period
Encoding: 46 46 30
Width: 109
VWidth: 0
Flags: HW
HStem: 6 56<50 110>
VStem: 50 64<7 64>
LayerCount: 2
Fore
SplineSet
110 7 m 5
 55 7 l 5
 55 62 l 5
 110 62 l 5
 110 7 l 5
114 7 m 6
 110 6 l 6
 50 6 l 6
 50 7 l 6
 50 64 l 6
 110 64 l 6
 114 64 l 6
 114 7 l 6
EndSplineSet
EndChar

StartChar: j
Encoding: 106 106 31
Width: 435
VWidth: -10
Flags: HW
HStem: -749 33G<30 56> 610 2<382 384> 741 110<262 382> 741 2<262 382>
VStem: 26 2<-750 -642> 30 2<-750 -642> 258 2<-355 608 743 850> 382 2<-370 610 743 850>
LayerCount: 2
Fore
SplineSet
262 614 m 5xcb
 262 614 260 -115 258 -339 c 4
 256 -545 30 -638 30 -638 c 0xc7
 26 -750 l 2
 26 -757 l 2
 26 -757 384 -697 384 -339 c 6
 387 614 l 6
 384 614 l 6
 262 614 l 5xcb
264 610 m 5
 384 610 l 5
 382 -339 l 6
 382 -682 56 -750 30 -750 c 1xcb
 32 -642 l 1
 51 -640 260 -539 262 -339 c 4
 264 -120 264 572 264 610 c 5
262 854 m 6xe3
 258 854 l 6xe3
 258 743 l 6xd3
 262 741 l 6xe3
 384 741 l 6
 384 743 l 6xd3
 384 854 l 6
 262 854 l 6xe3
262 850 m 5
 382 850 l 5
 382 743 l 5
 262 743 l 5xd3
 262 850 l 5
262 799 m 5
 262 850 l 5
 322 850 l 5
 382 850 l 5
 382 799 l 5
 382 746 l 5
 322 746 l 5
 262 746 l 5
 262 799 l 5
30 -721 m 0xcb
 30 -704 32 -679 32 -666 c 2
 32 -642 l 1xc7
 56 -634 l 2
 144 -611 217 -500 247 -430 c 4
 249 -421 256 -406 258 -393 c 4
 264 -370 264 -368 264 120 c 6
 264 607 l 5
 326 607 l 5
 382 607 l 5
 382 122 l 6
 382 -189 380 -370 378 -387 c 4
 369 -469 340 -531 290 -581 c 4
 234 -637 147 -739 56 -745 c 2
 30 -749 l 1
 30 -721 l 0xcb
EndSplineSet
EndChar

StartChar: k
Encoding: 107 107 32
Width: 570
VWidth: -257
Flags: HW
HStem: -6 2<30 149 393 517> 455 109<217 273> 1041 2<30 32>
VStem: 26 2<-2 1041> 149 2<-2 393 544 1041> 520 2<646 790>
LayerCount: 2
Fore
SplineSet
2.94921875 1046.52050781 m 2
 2.12109375 1046.52050781 1.4296875 1045.82910156 1.4296875 1045.00097656 c 2
 1.4296875 2.0126953125 l 2
 1.4296875 1.0927734375 2.296875 0.4931640625 2.94921875 0.4931640625 c 2
 124.58203125 0.4931640625 l 2
 125.501953125 0.4931640625 126.1015625 1.3603515625 126.1015625 2.0146484375 c 2
 125.8828125 399.571289062 l 1
 495.041015625 648.536132812 l 2
 495.46484375 648.823242188 495.7109375 649.334960938 495.7109375 649.797851562 c 2
 495.7109375 796.006835938 l 2
 495.7109375 796.879882812 494.94140625 797.590820312 494.0703125 797.522460938 c 0
 493.80859375 797.500976562 493.48046875 797.362304688 493.34375 797.270507812 c 2
 124.814453125 550.516601562 l 1
 126.1015625 1044.99707031 l 2
 126.103515625 1045.91503906 125.240234375 1046.52050781 124.58203125 1046.52050781 c 2
 2.94921875 1046.52050781 l 2
4.470703125 1043.47949219 m 1
 123.056640625 1043.47949219 l 1
 121.765625 547.666992188 l 2
 121.765625 547.471679688 121.83203125 547.147460938 121.9609375 546.918945312 c 0
 122.388671875 546.157226562 123.40625 545.915039062 124.1328125 546.399414062 c 2
 492.669921875 793.159179688 l 1
 492.669921875 650.604492188 l 1
 123.51171875 401.639648438 l 2
 123.12890625 401.381835938 122.83984375 400.889648438 122.841796875 400.377929688 c 2
 123.060546875 3.5341796875 l 1
 4.470703125 3.5341796875 l 1
 4.470703125 1043.47949219 l 1
203.5703125 452.526367188 m 1
 277.732421875 231.108398438 l 1
 366.990234375 1.4619140625 l 2
 367.21875 0.8740234375 367.8125 0.4931640625 368.408203125 0.4931640625 c 2
 494.189453125 0.4931640625 l 2
 495.064453125 0.4931640625 495.775390625 1.2607421875 495.705078125 2.1318359375 c 0
 495.6953125 2.2666015625 495.62890625 2.5068359375 495.619140625 2.5302734375 c 2
 279.248046875 618.971679688 l 6
 278.943359375 619.809570312 277.962890625 620.165039062 277.2265625 619.854492188 c 6
 150.130859375 571.624023438 l 2
 149.330078125 571.286132812 149.037109375 570.325195312 149.318359375 569.643554688 c 2
 203.5703125 452.526367188 l 1
206.4375 453.540039062 m 1
 152.703125 569.409179688 l 1
 276.93359375 616.428710938 l 5
 492.021484375 3.5341796875 l 1
 369.447265625 3.5341796875 l 1
 280.603515625 232.108398438 l 1
 206.4375 453.540039062 l 1
280.603515625 232.108398438 m 1
 257.580078125 291.344726562 280.796875 231.532226562 280.603515625 232.108398438 c 1
6.765625 524.313476562 m 1
 6.765625 1042.41503906 l 1
 64.015625 1042.41503906 l 1
 121.263671875 1042.41503906 l 1
 121.263671875 793.383789062 l 2
 121.263671875 656.415039062 121.958984375 544.350585938 122.806640625 544.350585938 c 0
 123.65625 544.350585938 125.017578125 548.840820312 133.166015625 554.327148438 c 0
 141.3125 559.815429688 148.87890625 563.356445312 149.978515625 562.200195312 c 0
 151.076171875 561.041992188 159.076171875 542.706054688 167.75390625 521.452148438 c 0
 176.43359375 500.198242188 192.169921875 476.670898438 195.390625 469.166992188 c 2
 201.24609375 455.526367188 l 1
 161.328125 429.092773438 l 1
 121.41015625 402.661132812 l 1
 121.3359375 204.436523438 l 1
 121.263671875 6.2138671875 l 1
 64.015625 6.2138671875 l 1
 6.765625 6.2138671875 l 1
 6.765625 524.313476562 l 1
 6.765625 524.313476562 l 1
183.265625 513.385742188 m 0
 170.998046875 543.329101562 155.369140625 568.208007812 155.865234375 568.670898438 c 0
 158.89453125 571.491210938 274.68359375 613.567382812 275.8046875 612.446289062 c 4
 277.96484375 610.286132812 302.224609375 523.958007812 301.138671875 523.157226562 c 0
 298.330078125 521.086914062 210.986328125 462.208007812 208.498046875 460.708007812 c 0
 206.779296875 459.670898438 196.341796875 481.461914062 183.265625 513.385742188 c 0
305.900390625 530.547851562 m 0
 305.1328125 532.629882812 297.51953125 553.436523438 288.984375 576.784179688 c 0
 280.44921875 600.131835938 279.896484375 619.805664062 279.197265625 620.502929688 c 4
 278.5 621.200195312 255.7265625 615.260742188 237.146484375 607.305664062 c 0
 218.564453125 599.348632812 202.193359375 593.229492188 200.763671875 593.706054688 c 0
 198.419921875 594.487304688 485.53515625 787.659179688 489.041015625 787.659179688 c 0
 489.853515625 787.659179688 490.517578125 756.823242188 490.517578125 719.135742188 c 2
 490.517578125 650.614257812 l 1
 438.27734375 615.602539062 l 2
 409.546875 596.344726562 368.322265625 568.479492188 346.669921875 553.676757812 c 0
 319.900390625 535.377929688 306.8515625 527.975585938 305.900390625 530.547851562 c 0
367.626953125 12.6533203125 m 0
 308.228515625 164.079101562 272.65234375 260.014648438 244.498046875 344.696289062 c 0
 225.26171875 402.553710938 209.951171875 451.151367188 210.4765625 452.690429688 c 0
 211 454.231445312 232.2890625 469.495117188 257.78515625 486.610351562 c 2
 304.138671875 517.731445312 l 1
 314.169921875 490.250976562 l 2
 375.671875 321.772460938 487.654296875 11.1064453125 487.654296875 8.9658203125 c 0
 487.654296875 7.2939453125 464.583984375 6.2138671875 428.904296875 6.2138671875 c 0
 370.634765625 6.2138671875 370.1328125 6.2646484375 367.626953125 12.6533203125 c 0
EndSplineSet
EndChar

StartChar: l
Encoding: 108 108 33
Width: 200
VWidth: -257
Flags: W
HStem: -6 4<30 149> 0 21G<32 149> 1021 20G<30 149>
VStem: 26 4<-2 1041> 149 3<-2 1041>
LayerCount: 2
Fore
SplineSet
30 1042 m 6
 26 1041 l 6
 26 -6 l 6
 30 -6 l 6
 152 -6 l 6
 152 1041 l 6
 152 1042 l 6
 30 1042 l 6
30 1041 m 5
 149 1041 l 5
 149 -2 l 5
 30 -2 l 5
 30 1041 l 5
32 520 m 5
 32 1034 l 5
 88 1034 l 5
 149 1034 l 5
 149 520 l 5
 149 0 l 5
 88 0 l 5
 32 0 l 5
 32 520 l 5
EndSplineSet
EndChar

StartChar: m
Encoding: 109 109 34
Width: 1318
VWidth: -168
Flags: HW
HStem: 2 2<159 279 653 773 1147 1267> 561 2<915 954> 566 2<30 158 282 649 775 930> 685 2<30 32 941 963>
VStem: 26 2<570 685> 158 2<6 566> 279 2<6 566> 649 2<6 566> 773 2<6 566> 1144 2<6 358> 1145 2<9 45> 1267 2<6 376>
LayerCount: 2
Fore
SplineSet
30 690 m 6xdfb0
 26 685 l 6
 26 569 l 6
 30 569 l 6
 158 566 l 5
 158 2 l 6
 159 2 l 6
 282 2 l 6
 282 566 l 5
 649 566 l 5
 649 6 l 6
 649 2 l 6
 773 2 l 6
 775 6 l 6
 775 566 l 5xbfb0
 792 566 924 565 937 559 c 4
 941 559 l 4
 941 559 1144 543 1144 350 c 4xdfd0
 1144 153 1145 6 1145 6 c 4
 1145 2 l 6
 1267 2 l 6
 1271 6 l 6
 1271 346 l 6
 1271 689 941 690 941 690 c 5
 30 690 l 6xdfb0
30 685 m 5
 941 685 l 6
 941 685 1267 689 1267 346 c 6
 1267 6 l 5
 1147 6 l 5xbfb0
 1147 23 1145 165 1145 350 c 4
 1145 543 947 566 941 566 c 4xdfd0
 922 572 773 569 773 569 c 4
 773 6 l 5
 653 6 l 5
 653 569 l 6
 649 569 l 6
 282 569 l 6
 279 566 l 6
 279 6 l 5
 159 6 l 5
 159 566 l 6
 159 569 l 6
 30 570 l 5
 30 685 l 5
162 290 m 5
 162 569 l 5
 138 569 l 6
 125 569 96 570 73 570 c 6
 32 575 l 5
 32 627 l 5
 32 681 l 5
 498 681 l 6
 951 681 963 684 993 678 c 4
 1120 652 1215 576 1248 466 c 4
 1265 421 1263 399 1263 197 c 6
 1263 9 l 5
 1209 9 l 5
 1147 9 l 5
 1147 131 l 6xbfb0
 1147 196 1145 287 1145 326 c 4xbfd0
 1143 396 1144 398 1138 421 c 4
 1119 480 1068 529 998 552 c 4
 957 569 929 569 843 569 c 6
 769 569 l 5
 769 290 l 5
 769 9 l 5
 713 9 l 5
 653 9 l 5
 653 290 l 5
 653 569 l 5
 469 569 l 5
 279 569 l 5
 279 290 l 5
 279 9 l 5
 223 9 l 5
 162 9 l 5
 162 290 l 5
EndSplineSet
EndChar

StartChar: n
Encoding: 110 110 35
Width: 752
VWidth: -168
Flags: W
HStem: -2 2<94 214 581 699> 563 4<214 228.52> 685 2<339 356.06>
VStem: -26 3<563 685> 90 4<0 287> 210 4<0 563> 576 5<0 327 331.625 358.415> 699 5<0 401>
LayerCount: 2
Fore
SplineSet
-26 687 m 6
 -26 685 l 6
 -26 559 l 6
 90 563 l 5
 90 -2 l 6
 94 -2 l 6
 217 -2 l 6
 217 -2 208 533 214 563 c 5
 528 601 570 398 576 343 c 4
 576 334 581 327 581 327 c 5
 576 -2 l 6
 581 -2 l 6
 704 -2 l 6
 704 327 l 6
 704 533 524 687 339 687 c 6
 -26 687 l 6
-23 685 m 5
 339 685 l 6
 521 685 704 529 704 327 c 6
 699 0 l 5
 581 0 l 5
 584 327 l 6
 584 327 581 335 581 344 c 4
 575 400 528 605 210 567 c 4
 201 567 214 32 214 0 c 5
 94 0 l 5
 94 563 l 6
 90 567 l 6
 -23 563 l 5
 -23 685 l 5
96 287 m 5
 96 567 l 5
 38 563 l 5
 -23 563 l 5
 -23 621 l 5
 -23 681 l 5
 159 681 l 6
 344 681 377 679 410 673 c 4
 466 660 524 637 569 599 c 4
 595 580 623 540 642 514 c 4
 668 476 682 446 695 401 c 6
 699 378 l 5
 699 191 l 5
 699 0 l 5
 640 0 l 5
 584 0 l 5
 584 170 l 6
 584 273 581 344 581 353 c 4
 572 408 543 465 505 498 c 4
 467 531 424 550 365 563 c 4
 342 565 337 569 282 569 c 4
 250 569 219 567 217 567 c 6
 206 567 l 5
 210 365 l 6
 210 256 210 131 210 86 c 6
 214 0 l 5
 153 0 l 5
 96 0 l 5
 96 287 l 5
EndSplineSet
EndChar

StartChar: o
Encoding: 111 111 36
Width: 804
VWidth: -140
Flags: HW
HStem: -1 93<235.351 417.971> 467 93<235.351 417.971>
VStem: 45.6607 94<188.563 371.257> 513.661 94<188.563 371.257>
LayerCount: 2
Fore
SplineSet
147.84375 365.4453125 m 4
 147.84375 499.802734375 256.748046875 608.708984375 391.10546875 608.708984375 c 4
 525.462890625 608.708984375 634.369140625 499.8046875 634.369140625 365.4453125 c 4
 634.369140625 231.087890625 525.46484375 122.18359375 391.10546875 122.18359375 c 4
 256.748046875 122.18359375 147.84375 231.0859375 147.84375 365.4453125 c 4
26.212890625 365.4453125 m 4
 26.212890625 163.9296875 189.587890625 0.552734375 391.10546875 0.552734375 c 4
 592.623046875 0.552734375 756 163.927734375 756 365.4453125 c 4
 756 566.962890625 592.625 730.33984375 391.10546875 730.33984375 c 4
 189.58984375 730.33984375 26.212890625 566.962890625 26.212890625 365.4453125 c 4
EndSplineSet
EndChar

StartChar: p
Encoding: 112 112 37
Width: 808
VWidth: 1
Flags: HW
HStem: -749 2<33 152> -745 2<33 152> -2 2<359 419> 123 2<370 421> 614 2<367 417> 728 2<353 423> 730 2<30 149>
VStem: 26 2<-743 730> 32 2<-743 730> 38 109<-617 101> 149 2<-745 96 642 730> 152 2<-745 96 353 405 647 730> 634 2<346 393> 758 2<329 401>
LayerCount: 2
Fore
SplineSet
33 -743 m 5x7bac
 152 -745 l 5xb9ac
 149 97 l 6
 149 101 l 4
 152 101 l 6
 152 101 235 0 397 2 c 4
 559 4 767 160 758 379 c 4
 749 598 559 728 391 728 c 4
 223 728 153 642 153 642 c 6xbddc
 152 642 l 6
 149 730 l 5
 30 730 l 5
 33 -743 l 5x7bac
32 -743 m 6x799c
 26 734 l 6
 30 734 l 6
 152 734 l 6
 153 647 l 5x7b9c
 170 664 238 730 391 730 c 4
 561 730 751 598 760 379 c 4
 769 160 564 0 397 -2 c 4
 248 -4 169 79 152 96 c 5x3dac
 153 -745 l 6x7d9c
 152 -749 l 6
 33 -745 l 6xb99c
 32 -743 l 6x799c
152 376 m 4
 150 467 224 617 391 617 c 4
 540 617 638 496 638 370 c 4
 638 244 532 123 397 123 c 4
 195 123 154 280 152 376 c 4
153 376 m 4
 155 280 197 127 397 127 c 4
 532 127 634 248 634 370 c 4
 634 492 533 614 391 614 c 4
 229 614 151 467 153 376 c 4
59 -739 m 6
 38 -739 l 5
 38 -617 l 6x7bcc
 38 -547 32 -215 32 118 c 6
 32 730 l 5
 88 730 l 5
 142 730 l 5
 149 704 l 6
 149 691 152 676 152 663 c 4x7bac
 152 650 152 638 152 638 c 4
 152 638 160 641 162 647 c 4
 181 666 220 691 258 704 c 4
 440 768 635 689 721 522 c 4
 759 441 767 343 737 261 c 4
 696 134 564 25 429 6 c 4
 338 -7 232 26 162 90 c 6
 142 103 l 5
 149 -318 l 5x7bdc
 149 -743 l 5x7bac
 114 -743 l 6
 95 -743 72 -739 59 -739 c 6
446 127 m 4
 572 153 657 285 634 411 c 4
 625 467 602 510 563 549 c 4
 522 588 475 611 419 617 c 4
 348 626 279 602 224 552 c 4
 168 496 143 426 152 352 c 4x399c
 165 226 234 146 339 127 c 4
 369 121 420 121 446 127 c 4
EndSplineSet
EndChar

StartChar: q
Encoding: 113 113 38
Width: 808
VWidth: 0
Flags: HW
LayerCount: 2
Fore
SplineSet
750 -741 m 5
 637 -743 l 5
 638 99 l 6
 638 103 l 4
 637 103 l 6
 637 103 549 0 387 2 c 4
 225 4 21 163 30 382 c 4
 39 601 225 728 393 728 c 4
 561 728 633 642 633 642 c 6
 637 642 l 4
 637 642 l 6
 638 731 l 5
 758 731 l 5
 750 -741 l 5
754 -741 m 6
 760 736 l 6
 758 736 l 6
 637 736 l 6
 637 736 l 6
 633 649 l 5
 616 666 546 731 393 731 c 4
 223 731 35 601 26 382 c 4
 17 163 220 2 387 0 c 4
 536 -2 620 79 637 96 c 5
 633 -743 l 6
 637 -746 l 6
 750 -743 l 6
 754 -741 l 6
637 378 m 4
 639 469 560 617 393 617 c 4
 244 617 149 496 149 370 c 4
 149 244 252 126 387 126 c 4
 589 126 635 282 637 378 c 4
633 378 m 4
 631 282 587 127 387 127 c 4
 252 127 152 248 152 370 c 4
 152 492 251 616 393 616 c 4
 555 616 635 469 633 378 c 4
638 -318 m 5
 638 105 l 5
 619 88 l 6
 569 47 519 18 455 9 c 4
 416 3 352 4 320 13 c 4
 211 45 115 124 65 223 c 4
 42 268 34 298 32 353 c 4
 30 398 40 442 53 481 c 4
 92 603 196 696 331 722 c 4
 363 728 428 728 466 722 c 4
 525 713 586 689 619 657 c 6
 637 640 l 5
 638 670 l 6
 638 687 638 702 638 711 c 6
 638 731 l 5
 698 731 l 5
 758 731 l 5
 754 695 l 6
 754 672 750 343 750 -41 c 6
 750 -741 l 5
 696 -741 l 5
 638 -741 l 5
 638 -318 l 5
455 127 m 4
 526 144 573 183 605 247 c 4
 637 311 646 390 627 449 c 4
 601 530 532 591 458 614 c 4
 428 623 385 623 353 617 c 4
 248 598 169 511 152 401 c 4
 135 292 209 173 314 135 c 4
 327 133 344 126 353 126 c 4
 376 124 429 121 455 127 c 4
EndSplineSet
EndChar

StartChar: r
Encoding: 114 114 39
Width: 633
VWidth: -168
Flags: W
HStem: -6 4<99 219> 2 21G<99 217> 554 4<-23 96> 678 1<-23 -19 219 225.234>
VStem: -26 3<558 678> 96 3<-2 554> 217 6<-2 552> 462 4<322 341.239> 466 115<322 322 339 442.24> 584 1<320 659>
LayerCount: 2
Fore
SplineSet
-26 679 m 6xff40
 -26 678 l 6
 -26 554 l 6
 96 554 l 5
 96 -6 l 6
 219 -6 l 6
 223 -6 l 6
 223 -6 217 522 223 552 c 5
 462 550 462 320 462 320 c 4
 462 320 583 311 585 320 c 4
 579 663 219 679 219 679 c 5
 -26 679 l 6xff40
-23 678 m 5
 219 678 l 6
 219 678 578 659 584 320 c 4
 575 314 479 322 466 322 c 5
 466 341 451 552 219 554 c 4
 206 556 219 28 219 -2 c 5
 99 -2 l 5
 99 554 l 6
 96 558 l 6
 -23 558 l 5
 -23 678 l 5
99 281 m 5
 99 558 l 5
 39 558 l 5
 -19 559 l 5
 -19 617 l 5
 -19 678 l 5
 110 673 l 6
 232 673 243 672 273 666 c 4
 361 647 431 616 481 566 c 4
 545 507 572 442 581 346 c 6
 581 322 l 5xfec0
 570 320 l 6
 564 320 539 320 513 320 c 6
 466 322 l 5
 466 339 l 6
 449 466 367 546 247 552 c 6
 219 554 l 5
 217 544 l 6
 217 542 217 419 217 270 c 6
 217 2 l 5
 159 2 l 5
 99 2 l 5
 99 281 l 5
EndSplineSet
EndChar

StartChar: s
Encoding: 115 115 40
Width: 592
VWidth: -165
Flags: W
HStem: 2 4<30 541> 6 116<30 391> 555 4<200 382> 673 5<378 382>
VStem: 26 4<555 673> 382 2<559 673> 537 4<2 120> 541 3<2 120>
LayerCount: 2
Fore
SplineSet
382 673 m 5x7e
 382 559 l 5
 197 559 l 6
 197 555 l 6
 537 120 l 5
 541 2 l 5
 30 6 l 5xbe
 30 122 l 5
 384 122 l 6
 387 122 l 4
 387 126 l 6
 30 555 l 5
 30 673 l 5
 382 673 l 5x7e
382 678 m 6
 30 678 l 6
 26 678 l 6
 26 555 l 6
 382 126 l 5
 30 126 l 6
 30 2 l 6
 544 0 l 6
 544 2 l 6xbd
 541 120 l 6xbe
 541 122 l 6x7d
 200 555 l 5
 382 555 l 6
 384 555 l 6
 384 678 l 6
 382 678 l 6
159 6 m 6
 30 6 l 5xbe
 30 65 l 5
 30 122 l 5
 214 122 l 5
 391 122 l 5x7e
 210 343 l 5
 30 559 l 5
 30 616 l 5
 30 673 l 5
 202 673 l 5
 378 673 l 5
 378 616 l 5
 378 559 l 5
 287 559 l 5
 193 559 l 5
 353 353 l 6
 441 243 517 140 523 131 c 6
 535 120 l 5
 537 59 l 5
 541 2 l 5xbe
 414 6 l 6
 344 6 229 6 159 6 c 6
EndSplineSet
EndChar

StartChar: t
Encoding: 116 116 41
Width: 390
VWidth: -203
Flags: W
HStem: 2 4<150 265> 563 4<30 150 270 390> 687 3<30 32> 833 1<152 155>
VStem: 26 4<567 687> 150 2<6 563 690 833> 265 5<6 563> 270 5<690 833> 390 1<567 687>
LayerCount: 2
Fore
SplineSet
152 834 m 6xfd80
 150 833 l 6
 150 690 l 5
 30 690 l 6
 26 687 l 6
 26 563 l 6
 30 563 l 6
 150 563 l 5
 146 2 l 6
 150 2 l 6
 270 2 l 6xfd80
 270 563 l 5xfe80
 391 563 l 6
 391 687 l 6
 391 690 l 6
 275 690 l 5
 275 833 l 6
 275 834 l 6
 152 834 l 6xfd80
152 833 m 5
 270 833 l 5
 270 687 l 6
 275 687 l 6
 390 687 l 5
 390 567 l 5
 270 567 l 6xfd80
 265 563 l 6
 265 6 l 5xfe80
 150 6 l 5
 152 563 l 6
 152 567 l 6
 30 567 l 5
 30 687 l 5
 152 687 l 6
 152 833 l 5
152 287 m 5
 155 567 l 5
 94 567 l 5
 32 567 l 5
 32 627 l 5
 32 685 l 5
 94 685 l 5
 155 685 l 5
 155 758 l 5
 155 833 l 5
 211 833 l 5
 270 833 l 5
 270 758 l 5
 270 685 l 5xfd80
 329 685 l 5
 390 685 l 5
 390 627 l 5
 390 567 l 5
 326 567 l 5
 265 567 l 5
 265 287 l 5
 265 6 l 5xfe80
 210 6 l 5
 152 6 l 5
 152 287 l 5
EndSplineSet
EndChar

StartChar: v
Encoding: 118 118 42
Width: 808
VWidth: -180
Flags: HW
LayerCount: 2
Fore
SplineSet
760 728 m 6
 760 728 l 4
 758 730 l 6
 617 730 l 6
 617 728 l 6
 523 485 l 5
 498 414 l 5
 384 114 l 5
 270 416 l 5
 239 488 l 5
 152 730 l 6
 152 730 l 6
 30 730 l 6
 30 730 l 4
 26 728 l 6
 326 -7 l 6
 326 -7 l 6
 447 -7 l 6
 447 -7 l 6
 760 728 l 6
758 728 m 5
 447 -6 l 5
 326 -6 l 5
 30 728 l 5
 149 728 l 5
 238 488 l 5
 264 416 l 5
 384 110 l 6
 384 110 l 4
 384 110 l 6
 502 410 l 5
 530 481 l 5
 617 728 l 5
 758 728 l 5
327 2 m 4
 325 8 58 666 41 707 c 4
 35 720 46 719 96 717 c 6
 149 717 l 5
 262 414 l 6
 326 247 382 118 384 118 c 4
 386 118 443 252 507 419 c 6
 621 721 l 5
 685 721 l 5
 746 721 l 5
 736 687 l 6
 730 670 663 508 582 326 c 6
 446 -6 l 5
 387 -6 l 6
 355 -6 329 0 327 2 c 4
EndSplineSet
EndChar

StartChar: w
Encoding: 119 119 43
Width: 1416
VWidth: -180
Flags: HW
LayerCount: 2
Fore
SplineSet
30 730 m 6
 26 730 l 6
 26 -7 l 6
 30 -7 l 6
 152 -7 l 6
 152 -7 l 6
 153 96 l 5
 170 77 242 -4 391 -2 c 4
 588 4 683 139 696 158 c 5
 709 139 802 0 1019 -2 c 4
 1233 -4 1366 191 1368 353 c 4
 1368 439 1368 730 1368 730 c 4
 1368 730 l 6
 1247 730 l 6
 1242 730 l 6
 1242 353 l 6
 1242 353 1225 127 1001 127 c 4
 772 127 760 353 760 353 c 5
 760 730 l 6
 758 730 l 6
 634 730 l 6
 634 730 l 4
 634 730 633 505 633 353 c 4
 633 248 540 120 391 120 c 4
 144 120 152 353 152 353 c 6
 152 730 l 6
 152 730 l 6
 30 730 l 6
30 730 m 5
 149 730 l 5
 149 353 l 5
 149 353 144 118 391 118 c 4
 540 118 634 248 634 353 c 4
 634 494 638 711 638 730 c 5
 758 730 l 5
 758 353 l 6
 758 353 l 6
 758 353 769 123 1001 123 c 4
 1230 123 1247 353 1247 353 c 5
 1247 730 l 5
 1365 730 l 5
 1365 704 1365 434 1365 353 c 4
 1363 194 1233 0 1019 2 c 4
 787 4 698 159 698 159 c 6
 696 159 l 4
 696 159 l 6
 696 159 601 8 391 2 c 4
 229 0 153 101 153 101 c 6
 152 101 l 4
 152 97 l 6
 149 -6 l 5
 30 -6 l 5
 30 730 l 5
32 361 m 5
 32 728 l 5
 88 728 l 5
 149 728 l 5
 149 522 l 5
 149 318 l 5
 158 288 l 6
 171 238 196 197 229 167 c 4
 248 150 292 133 318 127 c 4
 368 114 421 114 462 127 c 4
 544 153 614 221 633 307 c 4
 639 330 634 342 634 447 c 4
 634 511 638 605 638 646 c 6
 642 728 l 5
 698 728 l 5
 754 728 l 5
 754 534 l 6
 754 341 757 337 763 314 c 4
 795 211 847 146 943 127 c 4
 973 121 1031 121 1061 127 c 4
 1102 136 1138 153 1170 185 c 4
 1202 217 1222 253 1239 303 c 4
 1245 326 1247 333 1247 530 c 6
 1248 728 l 5
 1304 728 l 5
 1365 728 l 5
 1365 522 l 6
 1365 329 1363 320 1357 294 c 4
 1331 177 1262 78 1166 33 c 4
 1111 3 1070 4 1005 6 c 4
 919 8 857 30 792 71 c 4
 762 90 728 126 711 149 c 4
 705 158 696 162 696 162 c 4
 696 162 682 151 673 138 c 4
 618 73 548 28 462 9 c 4
 432 3 365 5 333 7 c 4
 274 16 209 47 168 86 c 6
 152 103 l 5
 149 82 l 6
 149 69 149 47 149 30 c 6
 149 -2 l 5
 88 -2 l 5
 32 -2 l 5
 32 361 l 5
EndSplineSet
EndChar

StartChar: x
Encoding: 120 120 44
Width: 1073
VWidth: -141
Flags: W
HStem: 1.66797 3.04102<6.51463 125.189 614.83 733.528> 322.303 96.0586<236.824 494.693> 418.535 2.86719<334.247 389.062> 735.957 3.03906<-0.701339 0.326172 115.789 117.988 607.666 608.182 726.271 726.674>
VStem: -0.564453 114.768<36.7227 188.564 534.403 702.303> 114.822 3.04102<650.436 721> 613.578 3.04102<7.74734 75.8837> 617.914 113.504<17.8945 203.766 556.507 719.314>
LayerCount: 2
Fore
SplineSet
-1.880859375 738.99609375 m 6
 -2.583984375 738.99609375 -3.265625 738.458984375 -3.3828125 737.7109375 c 4
 -3.390625 737.6640625 -41.16796875 496.849609375 147.990234375 369.423828125 c 5
 -26.67578125 248.80859375 3.712890625 3.376953125 3.7578125 3.001953125 c 4
 3.83984375 2.33984375 4.46484375 1.66796875 5.267578125 1.66796875 c 6
 126.8984375 1.66796875 l 6
 127.55859375 1.66796875 128.541015625 2.349609375 128.40625 3.3828125 c 4
 128.37109375 3.65625 91.734375 286.986328125 325.2578125 316.740234375 c 4
 338.861328125 318.474609375 353.388671875 319.3515625 368.90234375 319.263671875 c 4
 591.66796875 317.9921875 614.107421875 123.32421875 613.578125 40.01953125 c 4
 613.4375 17.537109375 611.6171875 3.380859375 611.6171875 3.380859375 c 6
 611.51171875 2.552734375 612.18359375 1.66796875 613.126953125 1.66796875 c 6
 734.7578125 1.66796875 l 6
 735.501953125 1.66796875 736.162109375 2.236328125 736.263671875 2.982421875 c 4
 736.28515625 3.142578125 767.9375 230.833984375 591.044921875 375.45703125 c 5
 762.390625 502.412109375 729.158203125 737.36328125 729.111328125 737.69140625 c 4
 729.0078125 738.416015625 728.361328125 738.99609375 727.607421875 738.99609375 c 6
 605.974609375 738.99609375 l 6
 605.16796875 738.99609375 604.353515625 738.240234375 604.46484375 737.298828125 c 4
 604.501953125 736.984375 642.0234375 420.115234375 363.90234375 421.40234375 c 4
 144.087890625 422.419921875 117.408203125 598.341796875 117.86328125 687.390625 c 4
 118.015625 717.353515625 121.251953125 737.234375 121.251953125 737.234375 c 6
 121.37109375 737.9765625 120.7734375 738.99609375 119.75 738.99609375 c 6
 -1.880859375 738.99609375 l 6
-0.5625 735.95703125 m 5
 117.98828125 735.95703125 l 6
 117.205078125 730.404296875 114.94921875 712.341796875 114.822265625 687.40625 c 4
 114.3671875 598.0234375 141.552734375 419.390625 363.888671875 418.361328125 c 4
 633.892578125 417.11328125 610.05078125 711.900390625 607.666015625 735.95703125 c 5
 726.271484375 735.95703125 l 5
 728.693359375 716.490234375 751.9140625 496.69140625 587.662109375 376.744140625 c 4
 586.806640625 376.119140625 586.9375 374.873046875 587.603515625 374.333984375 c 4
 756.78515625 237.693359375 735.56640625 23.037109375 733.4140625 4.708984375 c 5
 614.830078125 4.708984375 l 6
 615.322265625 9.279296875 616.505859375 21.96875 616.619140625 40 c 4
 617.1484375 123.443359375 594.3984375 321.017578125 368.919921875 322.302734375 c 4
 95.638671875 323.857421875 122.51171875 29.07421875 125.189453125 4.708984375 c 5
 6.626953125 4.708984375 l 5
 4.5 24.69140625 -15.927734375 254.876953125 151.560546875 368.17578125 c 4
 152.283203125 368.666015625 152.44140625 369.701171875 151.896484375 370.3828125 c 4
 151.798828125 370.5078125 151.67578125 370.619140625 151.548828125 370.701171875 c 4
 -29.79296875 491.13671875 -3.16796875 716.873046875 -0.5625 735.95703125 c 5
8.34765625 62.490234375 m 6
 10.1171875 123.1640625 15.01953125 153.775390625 30.24609375 199.22265625 c 4
 52.16796875 264.654296875 92.07421875 322.802734375 137.328125 355.25 c 4
 146.052734375 361.505859375 153.25390625 367.45703125 153.328125 368.474609375 c 4
 153.404296875 369.4921875 142.298828125 379.15234375 128.650390625 389.943359375 c 4
 42.400390625 458.125 -3.515625 566.306640625 -0.564453125 694.373046875 c 6
 0.326171875 733.015625 l 5
 58.05859375 733.7890625 l 5
 115.7890625 734.564453125 l 5
 114.203125 702.302734375 l 6
 107.75 571.087890625 162.470703125 469.669921875 258.537109375 434.798828125 c 4
 293.845703125 421.982421875 315.142578125 418.693359375 363.85546875 418.53515625 c 4
 402.08984375 418.408203125 413.890625 419.443359375 435.30078125 424.794921875 c 4
 538.541015625 450.603515625 597.412109375 532.755859375 608.798828125 666.908203125 c 4
 610.5390625 687.408203125 611.111328125 710.9921875 610.072265625 719.314453125 c 6
 608.181640625 734.447265625 l 5
 667.427734375 734.447265625 l 5
 726.673828125 734.447265625 l 5
 725.13671875 676.482421875 l 6
 724.015625 634.208984375 722.07421875 611.544921875 717.9609375 592.755859375 c 4
 706.90625 542.240234375 687.830078125 495.42578125 662.556640625 456.791015625 c 4
 650.712890625 438.685546875 605.5234375 390.662109375 591.693359375 381.484375 c 6
 584.8125 376.91796875 l 5
 613.162109375 348.830078125 l 6
 672.794921875 289.74609375 710.232421875 217.0859375 725.9140625 129.9921875 c 4
 732.337890625 94.318359375 736.375 33.80078125 733.390625 17.89453125 c 6
 731.41796875 7.388671875 l 5
 674.666015625 7.388671875 l 5
 617.9140625 7.388671875 l 5
 616.359375 55.333984375 l 6
 613.400390625 146.58203125 591.357421875 209.265625 545.619140625 256.48828125 c 4
 513.798828125 289.345703125 476.197265625 308.8359375 426.828125 318.06640625 c 4
 390.427734375 324.87109375 318.462890625 322.685546875 288 313.849609375 c 4
 237.8671875 299.30859375 193.671875 267.025390625 167.7890625 226.04296875 c 4
 137.087890625 177.43359375 120.2578125 107.103515625 122.482421875 36.72265625 c 6
 123.41015625 7.375 l 5
 65.076171875 7.375 l 5
 6.7421875 7.375 l 5
 8.34765625 62.478515625 l 5
 8.34765625 62.490234375 l 6
EndSplineSet
EndChar

StartChar: y
Encoding: 121 121 45
Width: 808
VWidth: 0
Flags: W
HStem: -754 4<362.526 424.052> -631 4<363.544 424.829> -397 4<149 149.269> -6 4<347.375 430.447> 0 110<263.644 521.749> 110 7<357.778 428.006> 711 3<30 32>
VStem: 26 4<334.629 711> 149 3<340.07 400.84 554.873 711> 634 4<-411.362 88 350 721> 758 2<-401.924 721>
LayerCount: 2
Fore
SplineSet
149 711 m 5xfbe0
 149 350 l 6
 149 350 168 112 387 110 c 4
 619 108 638 350 638 350 c 5
 638 721 l 5
 758 721 l 5
 758 350 l 5
 758 -393 l 6
 758 -393 732 -750 393 -750 c 4
 67 -750 32 -423 30 -397 c 5
 149 -397 l 5
 151 -416 179 -631 393 -631 c 4
 632 -631 638 -393 638 -393 c 5
 638 94 l 6
 634 94 l 6
 634 94 560 -2 393 -2 c 4
 54 -8 30 350 30 350 c 6
 30 711 l 5
 149 711 l 5xfbe0
152 714 m 4
 30 714 l 6
 26 714 l 6
 26 350 l 6
 26 350 54 -12 393 -6 c 4
 545 -6 617 71 634 88 c 5
 634 -393 l 6
 634 -393 628 -627 393 -627 c 4
 170 -627 152 -393 152 -393 c 4
 30 -393 l 6
 26 -393 l 6
 26 -393 50 -754 393 -754 c 4
 736 -754 760 -393 760 -393 c 5
 760 350 l 5
 760 722 l 6
 758 722 l 6
 634 722 l 6
 634 350 l 5
 634 350 619 115 387 117 c 4xf7e0
 170 119 152 350 152 350 c 4
 143 470 152 594 152 714 c 4
322 -741 m 4
 251 -728 194 -698 149 -653 c 4
 94 -598 57 -528 38 -440 c 4
 29 -399 21 -397 91 -397 c 6
 149 -397 l 5
 152 -416 l 6
 165 -480 198 -545 239 -578 c 4
 295 -623 373 -644 455 -627 c 4
 546 -608 607 -546 633 -449 c 6
 638 -429 l 5
 638 -162 l 5
 638 99 l 5
 621 82 l 6
 588 50 539 26 494 13 c 4
 455 0 431 -2 375 0 c 4
 316 2 280 5 239 24 c 4
 148 62 80 152 47 262 c 4
 30 321 32 321 32 523 c 6
 32 711 l 5
 88 711 l 5
 149 711 l 5
 149 531 l 6
 149 364 146 348 152 322 c 4
 175 213 233 143 329 120 c 4
 352 114 363 110 401 110 c 4xfbe0
 451 112 469 117 507 136 c 4
 572 168 615 234 634 322 c 4
 636 341 638 372 638 530 c 6
 638 714 l 5
 698 714 l 5
 758 714 l 5
 758 152 l 5
 754 -414 l 5
 746 -442 l 6
 714 -578 643 -680 544 -721 c 4
 499 -740 470 -743 405 -743 c 4
 366 -743 339 -743 322 -741 c 4
EndSplineSet
EndChar

StartChar: z
Encoding: 122 122 46
Width: 592
VWidth: -165
Flags: HW
LayerCount: 2
Fore
SplineSet
187 670 m 6
 187 670 l 6
 187 546 l 6
 187 546 l 6
 367 546 l 5
 30 110 l 6
 30 109 l 6
 26 -6 l 6
 30 -9 l 6
 541 -6 l 6
 541 -6 l 6
 541 117 l 6
 541 117 l 6
 187 122 l 5
 544 546 l 6
 544 546 l 6
 544 670 l 6
 544 670 l 6
 187 670 l 6
191 666 m 5
 541 666 l 5
 541 546 l 5
 185 122 l 6
 185 120 l 4
 185 120 l 6
 537 110 l 5
 537 -2 l 5
 30 -6 l 5
 33 109 l 5
 376 546 l 6
 376 550 l 4
 370 550 l 6
 191 550 l 5
 191 666 l 5
33 55 m 5
 33 109 l 5
 206 327 l 5
 378 546 l 5
 287 546 l 5
 191 550 l 5
 191 607 l 5
 191 663 l 5
 365 663 l 5
 541 663 l 5
 541 607 l 5
 541 550 l 5
 359 333 l 5
 182 120 l 5
 256 117 l 6
 295 117 378 117 434 117 c 6
 537 110 l 5
 537 56 l 5
 537 0 l 5
 530 -2 l 6
 524 -2 410 -2 275 -2 c 6
 30 -2 l 5
 33 55 l 5
EndSplineSet
EndChar

